<svg xmlns="http://www.w3.org/2000/svg" viewBox="0 0 260 413.67"><title>bodoni-avatar</title><g id="Layer_2" data-name="Layer 2"><g id="Original_copy" data-name="Original copy"><path d="M260,107.46a35.25,35.25,0,0,1-.66,6.12c-1.06,6.63-4,9.21-10.61,8.6-2.47-.23-2.81-.05-1.89,2.3A202.24,202.24,0,0,1,259,169.25c3.21,22.2-1.49,42.87-15.08,60.6-7.91,10.31-19,17.09-32.87,17-2.85,0-2.56,1.54-1.83,3.08q3.69,7.74,7.71,15.34c2.55,4.81,5.81,9.33,7.79,14.36,1.77,4.48,1.79,9.41-1.36,13.75-.73,1-2.08,2.39.49,2.92,8.58,1.73,13,8.37,17.1,15,5.7,9.21,8,19.62,8.39,30.26a227.86,227.86,0,0,1-.75,28.74,95,95,0,0,0,4.23,36.82,54.92,54.92,0,0,0,1.49,6.52c-1.12-1.85-2.57-3.57-3.31-5.55a147.29,147.29,0,0,1-9-42.74c-.77-12-1.6-24.09-3.46-36-1.29-8.22-4.5-16.13-10.75-22.19a32.53,32.53,0,0,0-6-4.22c-2.12-1.27-3.32-.17-2.93,2,.78,4.26,1.9,8.47,2.94,12.69s2.16,8.15,3.09,12.26c.17.75-.44,1.67-.69,2.51a17.48,17.48,0,0,1-1.15-1.95c-1.85-4.22-3.28-8.69-5.58-12.65-4.94-8.48-3.91-16.71.95-24.44,3.47-5.53,2.8-10.6.46-15.95a21,21,0,0,0-2.9-5c-8.41-10-11.82-22.12-14.56-34.4a83.21,83.21,0,0,1-1.57-18.4c.16-19.69-.58-39.22-6.53-58.22-6.58-21-15.11-41-29.16-58.13a145,145,0,0,0-38.34-32.83c-5.33-3.17-10.74-6.22-15.43-8.92,3,4.23,6.52,8.73,9.52,13.56,4.38,7.07,8.59,14.25,12.87,21.38L130.43,98a151.27,151.27,0,0,0-25.84-32.32c-1.77-1.71-3.39-3.41-1.21-5.94.12-.14-.4-1.2-.66-1.22-3.12-.2-6.25-.29-9.38-.33,0,0-.28,1.31,0,1.5,16,12.71,23.21,29.91,24.68,49.63a107.53,107.53,0,0,0,9.2,37.38l-2.68,1.25c-2-4.29-3.81-8-5.74-11.71-.41-.77-1.79-1.14-2.8-1.45-8.6-2.61-17.32-2.39-26-.79-2.31.43-4.47,1.67-6.7,2.54-.74,0-1-.83-.48-1.4a38.23,38.23,0,0,1,9.51-4.48c7-2.52,14-1.86,21-.18,1.71.41,3.37,1.13,2.58-2.13A105.12,105.12,0,0,1,114,116.12c-1.92-16.05-6.68-31.16-16.12-44.38-9-12.66-7.3-12.29-20.74-3.84-14.94,9.41-26.64,22.46-37.46,36.19C33.48,112,28,120.5,22.18,128.73l-2.38-1.3a193.53,193.53,0,0,1,11-18.68c11.94-17,27-31.09,43.75-43.24,4-2.92,8.75-4.91,12.54-7-31.29-1.63-50.6,18.8-69.18,41.29-4.22,3.1-.53-1.84-.38-2,6.61-9.21,12.14-19.57,20.18-27.31C49.33,59.27,64.58,54.58,80.49,52c13.31-2.18,25.26,1.18,36.89,6.87,15.28,7.48,29.51,16.7,41.32,29a150.6,150.6,0,0,1,29.45,44.89c7.19,16.51,13.14,33.46,15.53,51.38,1.1,8.28,1.17,16.7,1.7,25.05.61,9.54,1.27,19.08,1.8,28.62.2,3.51,2.38,4.19,5.27,4.33,6.66.32,11.7-3.44,16.88-6.74,13.79-8.77,19.33-22.4,22.71-37.64,4.13-18.6-1.41-35.93-6.13-53.35a238.54,238.54,0,0,0-9-26,135.94,135.94,0,0,0-8.43-16.47C212.61,74,190,52.6,164.08,34.34c-17.61-12.41-36.79-22-57.43-27.64C85.62,1,64.19.68,43.57,9.91,31.93,15.13,23.48,24,15.83,33.8,4,48.9,4.29,66.41,5.43,84.35,6,93,8.23,100.93,10.79,109a8.84,8.84,0,0,1,.07,2.42c-.7-.51-1.85-.88-2-1.55-1.89-6.09-4.32-12.13-5.2-18.38-1-7.44-.68-15.07-1-22.61-.83-18,6.76-32.37,18.8-45.16C31.84,12.6,43.89,4.66,58.9,1.58A60.2,60.2,0,0,1,69.4.18C83.67-.18,98-.5,111.7,4.35c8.62,3.06,17,6.88,25.43,10.36,1.44.59,2.64,1.61,4.17-.4,6.18-8.1,15-11.59,24.66-13.4,9.2-1.72,17.69.8,25.8,4.65,21.38,10.16,37.48,26.33,50.12,45.92C252.83,68.43,259.65,87,260,107.46Zm-13,10.7c7.06-2.13,8.16-3.81,8-13.45-.48-3.1-.65-8.29-2.16-13.06C247.64,75,240.77,59.23,230,45.1c-11.39-14.92-24.63-27.21-41.52-35.43C173.37,2.32,159.23,5,145.85,14.11c-3.6,2.46-3.4,2.61.48,4.78,8.23,4.59,16.89,8.65,24.41,14.23,13.19,9.8,26.49,19.73,38.2,31.18,15.28,15,26.91,32.87,35.35,52.69A3,3,0,0,0,247,118.16Z"/><path d="M234.28,136.07s-.16.29-.19.28a6.41,6.41,0,0,1-.69-.29c.15-.14.3-.38.42-.36S234.15,135.92,234.28,136.07Z"/><path d="M201.81,296.71c4.4,3.89,5.21,9.26,4.52,14.76a90.31,90.31,0,0,1-2.31,10c0-4.11.07-8.4-.05-12.69a14.84,14.84,0,0,0-1-3.53c-.93.72-1.91,1.39-2.79,2.16q-15.06,13.19-30.08,26.4c-7.49,6.6-16,12.2-21.31,21-.23.38-.55,1-1.16.86s-.81-.82-1-1.18c-1.18-2.71-1.33-3.75-2.59-5.36-9.67-9-19-18.34-28.92-27-12-10.52-25.08-19.38-41.1-22.48a40.24,40.24,0,0,0-7.67-.75V297c1.64,0,3.18,0,4.73.05,10,.42,18.59,5.08,27,10,18.53,10.77,32.7,26.64,47.88,41.32,1,1,1.28,2.6,3.2.44,13.8-15.53,28.21-30.46,44.76-43.18a17.44,17.44,0,0,0,2.62-3.24,50.54,50.54,0,0,0-4.41-2.51c-2-.93-4.12-1.78-6.2-2.62l1-2.39a32.87,32.87,0,0,0,6.18,1.64c-5.46-6.22-7.37-13.05-5.14-20.19,2.09-6.7,5.37-13,8.63-19.41.61,5.86,1.54,11.51-.69,17.28C192.06,284.06,193.82,289.63,201.81,296.71Z"/><path d="M92.84,193.34a34.88,34.88,0,0,1-4.57-3.19C82,185.89,79,179.59,78,172.45c-.07-.54-.22-2.69-.78-2.69-.65.24-.39,2.54-.34,3.07.55,7.19,2.83,13.65,8.84,18.06A12.73,12.73,0,0,0,92.84,193.34ZM187,294.78l-1,2.39-2.29-.92.08-.1-.31-.07c-3.87-2.93-5.25-7-5-11.7a59.29,59.29,0,0,1,1-7.74c1.69-8.71-2.07-14.82-10.59-17-3-.79-6.05-1.52-9-2.42l-.89-.27c-5.58-1.74-8.87-5.68-9.1-11.45-.41-10,3.36-23,15.64-27.26,7.49-2.6,9.15-8.16,5.1-15.09-3.74-6.39-9.14-11.19-16.64-15.15,4.78,12.61,1.52,23.39-4.93,33.43-2.95,4.6-6.83,8.59-9.93,13.1-3.58,5.22-2.72,11.36,1.16,16.37,3.53,4.54,8.56,4.94,13.48,6a15.71,15.71,0,0,1,5.51,2.26,10.18,10.18,0,0,1,4.45,8.19,48,48,0,0,1-.72,10.13c-1,6.82.8,13.33,5.5,15.08s10,2.41,15,3.52a1.56,1.56,0,0,0,.2.16h0c-.46.61-.83,1.46-1.44,1.67-5.76,2-17.7-1.65-21.1-6.88-2.15-3.32-4.58-3.21-7.65-2.29a21.19,21.19,0,0,1-3,.49,13.34,13.34,0,0,1,2.81-2.44c.93-.42,2.29.11,3.23-.29a3.44,3.44,0,0,0,1.93-2.2c.24-4.24.15-8.49.26-12.73.17-6.36-1.42-8.38-7.93-9s-11.5-3-15.31-8.42a18.35,18.35,0,0,1-3.4-10.54,23.65,23.65,0,0,1,.14-3.13c.31-2.87-.69-3.27-2.73-2.6l-.53-1.61,2.69-.89a6.66,6.66,0,0,0,2.72-2.23c2.76-3.41,5.48-6.84,8.09-10.37,7.09-9.59,11.65-19.91,7.79-32.08a28.35,28.35,0,0,0-4.64-8.84c-3.29-4.18-7.36-7.74-10.73-11.86s-3.3-4.33-5.59.63a13,13,0,0,0-.56,2.37c-2.66,10.83-7.65,20-18.42,24.7-7.25,3.18-14.56,5.83-22.44,1.42-9-5-13-12.88-14.32-22.68a65.52,65.52,0,0,0-3.1-12.58c-.43-1.25-2.67-2-4.2-2.63A7.39,7.39,0,0,0,64.52,164c-2.2,6.92-4,14-9.48,19.33-.31.3.36,1.68.68,2.52a18.73,18.73,0,0,0,1.05,2,11.65,11.65,0,0,1-2.31.4c-2.36-.07-4.8-.69-7.07-.31a75.18,75.18,0,0,0-10.64,2.91A2.59,2.59,0,0,0,35.38,193c4,17,8.86,33.74,16.63,49.53,4,8.05,10.49,11,20.45,11.19l.13,1.7c-11.13,1-18.89-4.3-25.11-16.27-7.62-14.66-12.24-30.34-15.25-46.53a4.45,4.45,0,0,0-2.46-3c-6.47-1.91-9.83-6.51-12-12.55-4-11.23-4.77-22.75-3.65-34.52.3-3.11,2.26-4.39,4.72-5.57.76-.36,1.18-1.45,1.75-2.2l2.33-.2a8,8,0,0,1-.31,1.13,10,10,0,0,0,1.71.19c13.9-.78,26.94.82,37.59,11.34,6.08,6,12.22,6.28,19.64,2a41.93,41.93,0,0,1,21.16-5.54A41.07,41.07,0,0,1,126,151q-.77-1.58-1.47-3.06l2.68-1.25a92.08,92.08,0,0,0,6.14,11.25c.72,1.11.83,2.6,1.49,3.76,3.59,6.39,7.81,11.91,14.62,15.65,8.76,4.81,17.42,10.23,23,18.94a34,34,0,0,1,5,11.08c1.82,8.95-.92,14-9.23,17.93-7.59,3.55-10.6,10-12,17.56-.73,4,1.05,6.65,5,7.73a60.32,60.32,0,0,0,8,2c6.57.87,11.74,4.32,14.05,10.13,1.65,4.13,1.13,9.21,1.19,13.87,0,2.86-.75,5.71-1,8.58C183,291,183.38,293.28,187,294.78ZM106.73,155.24c.61-.27,1.27-1.32-.26-2.47-1.73-1.3-4-2-8.43-1.42a42.87,42.87,0,0,0-10.27,3.25c-1.73.78-4.68,2.72-4.16,4.62.77,1.78,4.14,1.05,6.09.51,3.94-1.09,8-1.8,12-2.82A33.94,33.94,0,0,0,106.73,155.24Zm-69-7.37a1.35,1.35,0,0,0,.82-2.18c-2.24-2.7-15.14-4-18-1.78A2.85,2.85,0,0,0,19,147.16c.28,1.11,2.14,1.87,3.38,2a26.44,26.44,0,0,0,5.49.16A76.78,76.78,0,0,0,37.76,147.87ZM24.17,177.46c-1.65-4.12-3.48-8-4.74-12.05-.83-2.7-.81-5.65-1.23-8.49-.07-.47,0-1.21-.62-1.37s-.78.63-.89,1C15,162.73,19,173.86,24.17,177.46Z"/><path d="M185.44,218.22l-1.49.1c-.45-2.59-1.09-5.17-1.29-7.78q-.66-8.59-.94-17.22c-.26-8.6-2-16.19-9.27-22.17-6.33-5.2-7.79-13.29-8.81-21.09a54.61,54.61,0,0,1,0-9.31c0-.62.84-1.21,1.28-1.81a6.62,6.62,0,0,1,1,2.21c.38,8.87,1.89,17.39,7.32,24.74a46.35,46.35,0,0,0,3.53,4,23.24,23.24,0,0,1,6.29,14.76Q184.27,201.44,185.44,218.22Z"/><path d="M183.77,296.15l-.08.1h0a1.56,1.56,0,0,1-.2-.16Z"/><path d="M160.78,167c.25.72.5,1.43.76,2.15-.86-.15-1.92,0-2.55-.49-5.8-4.34-8.53-10.59-10.21-17.34-1.22-4.92-1.93-10-3.06-14.91A134.22,134.22,0,0,0,130.43,98l2.37-1.42c2.61,4.36,5.25,8.71,8,13,7.64,12.1,10.72,25.64,13.78,39.31C155.94,155.05,158.66,161,160.78,167Z"/><path d="M101.33,286.2a4.92,4.92,0,0,0,1.39.32q12.94.51,25.91.92c2.89.09,5.79,0,8.68,0,.05.38.11.75.16,1.13a20.16,20.16,0,0,1-4.1,1.21,165.81,165.81,0,0,1-16.8.86C106,290.36,95.5,289.24,85,289.12a34.54,34.54,0,0,0-12.32,2.22l-.79-2.13Q81.66,285.6,91.5,282c2.82-1,5.83-1.53,8.61-2.62,12.71-5,16.22-19.59,7.47-30-1.82-2.16-3.25-2.24-5.89-1.42-8.68,2.66-17.41,5.44-26.32,7-1,.17-1.87.29-2.78.37l-.13-1.7a51.72,51.72,0,0,0,7.33-1.41q24.63-7.86,49.19-16l.53,1.61-.57.2c-6.1,2.3-12.19,4.62-18.35,6.75-2,.7-2.33,1.23-.63,2.67,4.76,4,6.28,9.66,6.38,15.45.19,10.12-5,17-14,21.29a8.35,8.35,0,0,0-1.84,1.69C100.74,286,101,286.11,101.33,286.2Z"/><path d="M88.71,216.21c2.06-.16,2.56.32.3.74l-6.77.52c-1.74,0-1.56-.86-.08-1C84.4,216.18,86.46,216.53,88.71,216.21Z"/><path d="M71.64,214.9A6.81,6.81,0,0,1,75,216.53a20.93,20.93,0,0,1-3.47,1.05c-8,1-15-1-20.42-7.86C58,211.29,64.73,213.22,71.64,214.9Zm-5.06,1.38a10.25,10.25,0,0,0,1.69-.51,5.34,5.34,0,0,0-1.5-1c-3.37-.83-6.76-1.56-10.15-2.33C59.26,215.81,62.69,216.78,66.58,216.28Z"/><path d="M71.85,289.21l.79,2.13A63.91,63.91,0,0,0,61.23,297c1.86,0,3.56,0,5.18,0v1.92c-10.38,0-19.53,4.28-27.74,11.63-14.12,12.64-21.18,29.05-25,47-1.6,7.61-2-12.67,3.73-24.93,9.05-19.26,23.87-32.06,43.64-39.41Z"/><path d="M72.54,188c-1.79.82-2.54,2.58-5.61,2.58-2-.28-2-1.44-2.82-2.05,1.32-.86,2.61-2.34,4-2.4S71.05,187.27,72.54,188Z"/><path d="M67.34,203.14c1.67.54.71,1.1-.12,1-3-.32-6.46.73-9.18-.7-.65-.34-1.35-.23-1.35-.61.12-.54,1-.85,2.38-.23C61.63,203.78,64.5,202.65,67.34,203.14Z"/><path d="M71.91,226.48c-5.51,4.84-13.91,3.79-17.1-2.18C59.9,228.89,65.86,227.07,71.91,226.48Z"/><path d="M57.61,133.44c-2.84-.67-4.76-1.21-6.71-1.57-5.6-1.05-11.22-2.74-16.84-2.77-3.47,0-7,2.44-10.38,4-.38.17-.56.79-.73,1.43l-2.33.2c-.86,0-1.72,0-2.58.09-.62.06-1.22.22-1.83.33a8,8,0,0,1,.55-2.27c1-1.81,2-3.64,3-5.47l2.38,1.3A32.18,32.18,0,0,1,57.61,133.44Z"/><path d="M21.22,103.93c.63-.8,3.39-2.35,3.85-.88a5.44,5.44,0,0,1-1.44,3.21c-4.81,6.66-9.9,13.12-14.47,19.94a16.36,16.36,0,0,0-2.1,15.51c2.9,8.31-1.28,15.64-5.29,22.7A11.6,11.6,0,0,1,0,167.09a22.83,22.83,0,0,1,.53-3.72c.75-2.76,1.49-5.52,2.38-8.23,1.65-5.11,1.85-10-.41-15.14s.06-10.28,2.64-14.38C9.92,118,15.67,111,21.22,103.93Z"/></g></g></svg>