<svg xmlns="http://www.w3.org/2000/svg" viewBox="0 0 260.17 435.32"><defs><style>.cls-1{fill:#aa2123;}.cls-2{fill:#c28ca7;}.cls-3{fill:#89677a;}.cls-4{fill:#737373;}.cls-5{fill:#f7d166;}.cls-6{fill:#fee0c7;}</style></defs><title>Asset 5</title><g id="Layer_2" data-name="Layer 2"><g id="Layer_8" data-name="Layer 8"><path d="M234.28,136.08s-.16.29-.19.28a6.41,6.41,0,0,1-.69-.29c.15-.14.3-.38.42-.36S234.15,135.93,234.28,136.08Z"/><path d="M183.77,296.16l-.08.1h0a1.56,1.56,0,0,1-.2-.16Z"/><path d="M181.72,193.33c-.26-8.6-2-16.19-9.27-22.17-6.33-5.2-7.79-13.29-8.81-21.09a54.61,54.61,0,0,1,0-9.31c0-.62.84-1.21,1.28-1.81a6.62,6.62,0,0,1,1,2.21c.38,8.87,1.89,17.39,7.32,24.74a46.35,46.35,0,0,0,3.53,4,23.24,23.24,0,0,1,6.29,14.76q1.2,16.77,2.37,33.55l-1.49.1c-.45-2.59-1.09-5.17-1.29-7.78Q182,202,181.72,193.33Z"/><path d="M160.78,167c.25.72.5,1.43.76,2.15-.86-.15-1.92,0-2.55-.49-5.8-4.34-8.53-10.59-10.21-17.34-1.22-4.92-1.93-10-3.06-14.91A134.22,134.22,0,0,0,130.43,98l2.37-1.42c2.61,4.36,5.25,8.71,8,13,7.64,12.1,10.72,25.64,13.78,39.31C155.94,155.06,158.66,161,160.78,167Z"/><path d="M183.48,285.17c.23-2.87,1-5.72,1-8.58-.06-4.66.46-9.74-1.19-13.87-2.31-5.81-7.48-9.26-14.05-10.13a60.32,60.32,0,0,1-8-2c-3.95-1.08-5.73-3.73-5-7.73,1.39-7.59,4.4-14,12-17.56,8.31-3.88,11.05-9,9.23-17.93a34,34,0,0,0-5-11.08c-5.62-8.71-14.28-14.13-23-18.94-6.81-3.74-11-9.26-14.62-15.65-.66-1.16-.77-2.65-1.49-3.76a92.08,92.08,0,0,1-6.14-11.25l-2.68,1.25q.7,1.49,1.47,3.06a41.07,41.07,0,0,0-23.23-7.24,41.93,41.93,0,0,0-21.16,5.54c-7.42,4.23-13.56,4-19.64-2.05C51.29,136.7,38.25,135.1,24.35,135.88a10,10,0,0,1-1.71-.19,8,8,0,0,0,.31-1.13l-2.33.2c-.57.75-1,1.84-1.75,2.2-2.46,1.18-4.42,2.46-4.72,5.57-1.12,11.77-.33,23.29,3.65,34.52,2.14,6,5.5,10.64,12,12.55a4.45,4.45,0,0,1,2.46,3c1.21,6.48,2.68,12.88,4.49,19.17a5.13,5.13,0,0,1,2.16,4.1,4.13,4.13,0,0,0,.06,1.41c-.1-.71-.1-.79,0-.22a5.41,5.41,0,0,0,.12.55c.1.43.25.84.37,1.26l0,0a3.73,3.73,0,0,0,.2.4,5.22,5.22,0,0,1,.56,3.22,140.11,140.11,0,0,0,7.27,16.6c6.22,12,14,17.3,25.11,16.27l-.13-1.7c-10-.16-16.48-3.14-20.45-11.19C44.24,226.7,39.34,210,35.38,193a2.59,2.59,0,0,1,1.37-2.09A75.18,75.18,0,0,1,47.39,188c2.27-.38,4.71.24,7.07.31a11.65,11.65,0,0,0,2.31-.4,18.73,18.73,0,0,1-1.05-2c-.32-.84-1-2.22-.68-2.52C60.55,178,62.32,170.9,64.52,164a7.39,7.39,0,0,1,1.75-2.75c1.53.67,3.77,1.38,4.2,2.63a65.52,65.52,0,0,1,3.1,12.58c1.35,9.8,5.36,17.68,14.32,22.68,7.88,4.41,15.19,1.76,22.44-1.42,10.77-4.71,15.76-13.87,18.42-24.7a13,13,0,0,1,.56-2.37c2.29-5,2.18-4.8,5.59-.63s7.44,7.68,10.73,11.86a28.35,28.35,0,0,1,4.64,8.84c3.86,12.17-.7,22.49-7.79,32.08-2.61,3.53-5.33,7-8.09,10.37a6.66,6.66,0,0,1-2.72,2.23l-2.69.89.53,1.61c2-.67,3-.27,2.73,2.6a23.65,23.65,0,0,0-.14,3.13,18.35,18.35,0,0,0,3.4,10.54c3.81,5.39,8.94,7.8,15.31,8.42s8.1,2.66,7.93,9c-.11,4.24,0,8.49-.26,12.73a3.44,3.44,0,0,1-1.93,2.2c-.94.4-2.3-.13-3.23.29a13.34,13.34,0,0,0-2.81,2.44,21.19,21.19,0,0,0,3-.49c3.07-.92,5.5-1,7.65,2.29,3.4,5.23,15.34,8.86,21.1,6.88.61-.21,1-1.06,1.44-1.67h0a1.56,1.56,0,0,1-.2-.16c-5-1.11-10.22-1.75-15-3.52s-6.52-8.26-5.5-15.08a48,48,0,0,0,.72-10.13,10.18,10.18,0,0,0-4.45-8.19,12.29,12.29,0,0,0-1.22-.73,16.73,16.73,0,0,0-4.29-1.53c-4.92-1.1-9.95-1.5-13.48-6-3.88-5-4.74-11.15-1.16-16.37,3.1-4.51,7-8.5,9.93-13.1,6.45-10,9.71-20.82,4.93-33.43,7.5,4,12.9,8.76,16.64,15.15,4,6.93,2.39,12.49-5.1,15.09-12.28,4.26-16,17.26-15.64,27.26.22,5.64,3.37,9.53,8.73,11.32l.37.13.89.27c3,.9,6,1.63,9,2.42,8.52,2.22,12.28,8.33,10.59,17a59.29,59.29,0,0,0-1,7.74c-.28,4.7,1.1,8.77,5,11.7l.31.07-.08.1,2.29.92,1-2.39C183.38,293.29,183,291,183.48,285.17ZM16.69,156.59c.11-.4.22-1.08.89-1s.55.9.62,1.37c.42,2.84.4,5.79,1.23,8.49,1.26,4.06,3.09,7.93,4.74,12.05C19,173.87,15,162.74,16.69,156.59Zm21.07-8.71a76.78,76.78,0,0,1-9.91,1.47,26.44,26.44,0,0,1-5.49-.16c-1.24-.15-3.1-.91-3.38-2a2.85,2.85,0,0,1,1.57-3.25c2.89-2.23,15.79-.92,18,1.78A1.35,1.35,0,0,1,37.76,147.88Zm48,43c-6-4.41-8.29-10.87-8.84-18.06,0-.53-.31-2.83.34-3.07.56,0,.71,2.15.78,2.69,1,7.14,4,13.44,10.24,17.7a34.88,34.88,0,0,0,4.57,3.19A12.73,12.73,0,0,1,85.75,190.9Zm21-35.65a33.94,33.94,0,0,1-5,1.67c-4,1-8,1.73-12,2.82-2,.54-5.32,1.27-6.09-.51-.52-1.9,2.43-3.84,4.16-4.62A42.87,42.87,0,0,1,98,151.36c4.4-.61,6.7.12,8.43,1.42C108,153.93,107.34,155,106.73,155.25Z"/><path d="M89,217l-6.77.52c-1.74,0-1.56-.86-.08-1,2.24-.32,4.3,0,6.55-.29C90.77,216.06,91.27,216.54,89,217Z"/><path d="M107.58,249.42c-1.82-2.16-3.25-2.24-5.89-1.42-8.68,2.66-17.41,5.44-26.32,7-1,.17-1.87.29-2.78.37l-.13-1.7a51.72,51.72,0,0,0,7.33-1.41q24.63-7.86,49.19-16l.53,1.61-.57.2c-6.1,2.3-12.19,4.62-18.35,6.75-2,.7-2.33,1.23-.63,2.67,4.76,4,6.28,9.66,6.38,15.45.19,10.12-5,17-14,21.29a8.35,8.35,0,0,0-1.84,1.69c.29.08.59.19.88.28a4.92,4.92,0,0,0,1.39.32q12.94.51,25.91.92c2.89.09,5.79,0,8.68,0,.05.38.11.75.16,1.13a20.16,20.16,0,0,1-4.1,1.21,165.81,165.81,0,0,1-16.8.86C106,290.37,95.5,289.25,85,289.13a34.54,34.54,0,0,0-12.32,2.22l-.79-2.13q9.81-3.62,19.65-7.17c2.82-1,5.83-1.53,8.61-2.62C112.82,274.42,116.33,259.84,107.58,249.42Z"/><path d="M98.13,307c18.53,10.77,32.7,26.64,47.88,41.32,1,1,1.28,2.6,3.2.44C163,333.2,177.42,318.27,194,305.55a17.44,17.44,0,0,0,2.62-3.24,50.54,50.54,0,0,0-4.41-2.51c-2-.93-4.12-1.78-6.2-2.62l1-2.39a32.87,32.87,0,0,0,6.18,1.64c-5.46-6.22-7.37-13.05-5.14-20.19,2.09-6.7,5.37-13,8.63-19.41.61,5.86,1.54,11.51-.69,17.28-3.87,10-2.11,15.53,5.88,22.61,4.4,3.89,5.21,9.26,4.52,14.76a90.31,90.31,0,0,1-2.31,10c0-4.11.07-8.4-.05-12.69a14.84,14.84,0,0,0-1-3.53c-.93.72-1.91,1.39-2.79,2.16q-15.06,13.19-30.08,26.4c-7.49,6.6-16,12.2-21.31,21-.23.38-.55,1-1.16.86s-.81-.82-1-1.18c-1.18-2.71-1.33-3.75-2.59-5.36-9.67-9-19-18.34-28.92-27.05-12-10.52-25.08-19.38-41.1-22.48a40.24,40.24,0,0,0-7.67-.75V297c1.64,0,3.18,0,4.73.05C81.19,297.43,89.73,302.09,98.13,307Z"/><path d="M72.54,188c-1.79.82-2.54,2.58-5.61,2.58-2-.28-2-1.44-2.82-2,1.32-.86,2.61-2.34,4-2.4S71.05,187.28,72.54,188Z"/><path d="M72.64,291.35A63.91,63.91,0,0,0,61.23,297c1.86,0,3.56,0,5.18,0v1.92c-10.38,0-19.53,4.28-27.74,11.63-14.12,12.64-21.18,29.05-25,47-1.6,7.61-2-12.67,3.73-24.93,9.05-19.26,23.87-32.06,43.64-39.41l10.78-4Z"/><path d="M71.49,217.59c-8,1-15-1-20.42-7.86,6.94,1.57,13.66,3.5,20.57,5.18A6.81,6.81,0,0,1,75,216.54,20.93,20.93,0,0,1,71.49,217.59Zm-4.91-1.3a10.25,10.25,0,0,0,1.69-.51,5.34,5.34,0,0,0-1.5-1c-3.37-.83-6.76-1.56-10.15-2.33C59.26,215.82,62.69,216.79,66.58,216.29Z"/><path d="M71.91,226.49c-5.51,4.84-13.91,3.79-17.1-2.18C59.9,228.9,65.86,227.08,71.91,226.49Z"/><path d="M67.34,203.15c1.67.54.71,1.1-.12,1-3-.32-6.46.73-9.18-.7-.65-.34-1.35-.23-1.35-.61.12-.54,1-.85,2.38-.23C61.63,203.79,64.5,202.66,67.34,203.15Z"/><path d="M22.18,128.74a32.18,32.18,0,0,1,35.43,4.71c-2.84-.67-4.76-1.21-6.71-1.57-5.6-1-11.22-2.74-16.84-2.77-3.47,0-7,2.44-10.38,4-.38.17-.56.79-.73,1.43l-2.33.2c-.86,0-1.72,0-2.58.09-.62.06-1.22.22-1.83.33a8,8,0,0,1,.55-2.27c1-1.81,2-3.64,3-5.47Z"/><path d="M145.85,14.12c-3.6,2.46-3.4,2.61.48,4.78,8.23,4.59,16.89,8.65,24.41,14.23,13.19,9.8,26.49,19.73,38.2,31.18,15.28,15,26.91,32.87,35.35,52.69a3,3,0,0,0,2.71,1.17c7.06-2.13,8.16-3.81,8-13.45-.48-3.1-.65-8.29-2.16-13.06C247.64,75,240.77,59.24,230,45.11,218.59,30.19,205.35,17.9,188.46,9.68,173.37,2.33,159.23,5,145.85,14.12M10.79,109a8.84,8.84,0,0,1,.07,2.42c-.7-.51-1.85-.88-2-1.55-1.89-6.09-4.32-12.13-5.2-18.38-1-7.44-.68-15.07-1-22.61-.83-18,6.76-32.37,18.8-45.16,10.45-11.09,22.5-19,37.51-22.11A60.2,60.2,0,0,1,69.4.19C83.67-.17,98-.49,111.7,4.36c8.62,3.06,17,6.88,25.43,10.36,1.44.59,2.64,1.61,4.17-.4,6.18-8.1,15-11.59,24.66-13.4,9.2-1.72,17.69.8,25.8,4.65,21.38,10.16,37.48,26.33,50.12,45.92,11,16.95,17.77,35.49,18.12,56a35.25,35.25,0,0,1-.66,6.12c-1.06,6.63-4,9.21-10.61,8.6-2.47-.23-2.81,0-1.89,2.3A202.24,202.24,0,0,1,259,169.26c3.21,22.2-1.49,42.87-15.08,60.6-7.91,10.31-19,17.09-32.87,17-2.85,0-2.56,1.54-1.83,3.08q3.69,7.74,7.71,15.34c2.55,4.81,5.81,9.33,7.79,14.36,1.77,4.48,1.79,9.41-1.36,13.75-.73,1-2.08,2.39.49,2.92,8.58,1.73,13,8.37,17.1,15,5.7,9.21,8,19.62,8.39,30.26a227.86,227.86,0,0,1-.75,28.74,95,95,0,0,0,4.23,36.82,54.92,54.92,0,0,0,1.49,6.52c-1.12-1.85-2.57-3.57-3.31-5.55a147.29,147.29,0,0,1-9-42.74c-.77-12-1.6-24.09-3.46-36-1.29-8.22-4.5-16.13-10.75-22.19a32.53,32.53,0,0,0-6-4.22c-2.12-1.27-3.32-.17-2.93,2,.78,4.26,1.9,8.47,2.94,12.69s2.16,8.15,3.09,12.26c.17.75-.44,1.67-.69,2.51a17.48,17.48,0,0,1-1.15-1.95c-1.85-4.22-3.28-8.69-5.58-12.65-4.94-8.48-3.91-16.71.95-24.44,3.47-5.53,2.8-10.6.46-16a21,21,0,0,0-2.9-5c-8.41-10-11.82-22.12-14.56-34.4a83.21,83.21,0,0,1-1.57-18.4c.16-19.69-.58-39.22-6.53-58.22-6.58-21-15.11-41-29.16-58.13a145,145,0,0,0-38.34-32.83c-5.33-3.17-10.74-6.22-15.43-8.92,3,4.23,6.52,8.73,9.52,13.56,4.38,7.07,8.59,14.25,12.87,21.38L130.43,98a151.27,151.27,0,0,0-25.84-32.32c-1.77-1.71-3.39-3.41-1.21-5.94.12-.14-.4-1.2-.66-1.22-3.12-.2-6.25-.29-9.38-.33,0,0-.28,1.31,0,1.5,16,12.71,23.21,29.91,24.68,49.63a107.53,107.53,0,0,0,9.2,37.38l-2.68,1.25c-2-4.29-3.81-8-5.74-11.71-.41-.77-1.79-1.14-2.8-1.45-8.6-2.61-17.32-2.39-26-.79-2.31.43-4.47,1.67-6.7,2.54-.74.05-1-.83-.48-1.4a38.23,38.23,0,0,1,9.51-4.48c7-2.52,14-1.86,21-.18,1.71.41,3.37,1.13,2.58-2.13A105.12,105.12,0,0,1,114,116.13c-1.92-16-6.68-31.16-16.12-44.38-9-12.66-7.3-12.29-20.74-3.84C62.24,77.32,50.54,90.37,39.72,104.1,33.48,112,28,120.51,22.18,128.74l-2.38-1.3a193.53,193.53,0,0,1,11-18.68c11.94-17,27-31.09,43.75-43.24,4-2.92,8.75-4.91,12.54-7-31.29-1.63-50.6,18.8-69.18,41.29-4.22,3.1-.53-1.84-.38-2,6.61-9.21,12.14-19.57,20.18-27.31C49.33,59.28,64.58,54.59,80.49,52c13.31-2.18,25.26,1.18,36.89,6.87,15.28,7.48,29.51,16.7,41.32,28.95a150.6,150.6,0,0,1,29.45,44.89c7.19,16.51,13.14,33.46,15.53,51.38,1.1,8.28,1.17,16.7,1.7,25.05.61,9.54,1.27,19.08,1.8,28.62.2,3.51,2.38,4.19,5.27,4.33,6.66.32,11.7-3.44,16.88-6.74,13.79-8.77,19.33-22.4,22.71-37.64,4.13-18.6-1.41-35.93-6.13-53.35a238.54,238.54,0,0,0-9-26,135.94,135.94,0,0,0-8.43-16.47C212.61,74,190,52.61,164.08,34.35c-17.61-12.41-36.79-22-57.43-27.64C85.62,1,64.19.69,43.57,9.92,31.93,15.14,23.48,24,15.83,33.81,4,48.91,4.29,66.42,5.43,84.36,6,93,8.23,100.94,10.79,109Z"/><path d="M21.22,103.94C15.67,111,9.92,118,5.14,125.63c-.32.51-.64,1-.94,1.57C6.25,137.41,8.64,148.64,3,158a5.24,5.24,0,0,1-1.38,1.52c-.36,1.27-.72,2.55-1.07,3.83A22.83,22.83,0,0,0,0,167.1a11.6,11.6,0,0,0,1.77-2.68c4-7.06,8.19-14.39,5.29-22.7a16.36,16.36,0,0,1,2.1-15.51c4.57-6.82,9.66-13.28,14.47-19.94a5.44,5.44,0,0,0,1.44-3.21C24.61,101.59,21.85,103.14,21.22,103.94Z"/><path class="cls-1" d="M81.79,216.91c-2.84-3-4.54-6.54-6.86-9.91-1.48-2.15-3.87-3.14-6.38-3.71a6.28,6.28,0,0,0-1.06-.19,7,7,0,0,0-1.52.12c-.56.08-1.12.2-1.68.29a16.54,16.54,0,0,1-2.33.12,2.73,2.73,0,0,0-.5.05,1.43,1.43,0,0,1-.28-.07,2.19,2.19,0,0,1-.53-.37l-.27,0c-1.91-.88-4.35-1.49-6,.18a7.6,7.6,0,0,0-1.37,2.2c-.07.15-.13.31-.2.46a1,1,0,0,0,0,.1,8.82,8.82,0,0,0-.69,1.88l-.35.73a4.51,4.51,0,0,1-.69,1l.05.13a15.63,15.63,0,0,1,.71,1.75,14.59,14.59,0,0,1,.43,3.22,21.82,21.82,0,0,0,.7,5.6,4.6,4.6,0,0,1,.2,1,13.06,13.06,0,0,0,3.76,5.76,2.82,2.82,0,0,0,2.83.57,8.46,8.46,0,0,0,3.63.77,9.07,9.07,0,0,0,3.18-.65l.55-.25h0a5,5,0,0,0,.87.22,6.25,6.25,0,0,0,2.7-.31c.22-.15.44-.3.66-.43l.87-.56.42-.3c.54-.41,1.06-.85,1.57-1.29l1.26-1.16c.09-.09.2-.15.29-.23l.19-.16a2.6,2.6,0,0,1,.33-.25c1.1-1.3,2.26-2.54,3.34-3.85A23.43,23.43,0,0,1,81.87,217Zm-25.2-2.83a1.21,1.21,0,0,0-.35-.13,17,17,0,0,1-.59-2.9l.06,0c.46.1.92.19,1.4.25l1.45.66a33.15,33.15,0,0,0,4.64,1.63c3.13.84,6.37,1.31,9.32,2.71a3.77,3.77,0,0,0,1.45.34C68,217.34,61.83,217.28,56.59,214.08Z"/><path class="cls-2" d="M259.89,105.3a223,223,0,0,0-22.78-53.7,8.14,8.14,0,0,0-1.63-2c-.5-1-1-2-1.56-3a77.12,77.12,0,0,0-11.3-14.47,105,105,0,0,0-27.78-20.75C188.13,8,174.13.38,166.56,5.43c-.88-.14-1.76-.29-2.65-.41-3.53-.49-7,.63-8.64,3.76a44.54,44.54,0,0,0-4.51-.3c-9.66-.15-9.66,14.85,0,15,.66,0,1.31,0,2,.09,1.2,2.63,3.69,4.82,6.73,4.47L160,28a8.49,8.49,0,0,0,2.28,1.57l-.1,0,.27.13.27.12a19.74,19.74,0,0,1,3.62,2.15,5.45,5.45,0,0,0,2.42.9,9,9,0,0,0,4.9,2.5c.45.43.9.85,1.36,1.26,8.21,7.4,16.46,14.3,23.73,22.68,13.73,15.82,25.16,33.5,39.67,48.65l.31.28a14.93,14.93,0,0,1,0,4.12c-.53,4,3.83,7.5,7.5,7.5a7.14,7.14,0,0,0,6.92-5.11C257.35,114.1,261.25,110.21,259.89,105.3Z"/><path class="cls-3" d="M252.54,112.29c-.61-1.28-1.25-2.55-1.92-3.79-4-11.7-10.32-22.43-17.37-32.53A106.4,106.4,0,0,0,225,65.57l-9.61-8.92c-8.94-7.57-17-15.88-26.6-22.8-1.65-1.19-3.34-2.33-5-3.46-5.39-2.93-10.76-5.91-16.4-8.28-3.66-1.53-7.44-2.83-11-4.48l-.08,0a26.07,26.07,0,0,1-6.14-2.7,5,5,0,0,1-2.65-.74c-1.39-.16-2.77-.29-4.17-.36-1.08,3-.13,6.77,3.79,7.93C152.23,23.24,157.62,28,162,31c5.54,3.75,11,7.68,16.2,11.85a219.71,219.71,0,0,1,28.11,26.7,5.92,5.92,0,0,0,2,1.55,202.77,202.77,0,0,1,13,15.68,23.57,23.57,0,0,0,3.79,5.68,6.78,6.78,0,0,0,1.1.94c3.29,4.52,6.59,9,9.61,13.72a5.24,5.24,0,0,0,.36,2.47q1.08,2.72,2.15,5.43a6.11,6.11,0,0,0,3.89,3.68l.27.2c.19.21.38.43.58.64C248.08,124.75,255.31,118.18,252.54,112.29Z"/><path class="cls-4" d="M246.16,182.71v-8.12c0-9.65-15-9.67-15,0v14.65c0,9.48,14.45,9.66,15,.51A8.44,8.44,0,0,0,246.16,182.71Z"/><path class="cls-2" d="M254,173.54a10.53,10.53,0,0,0-.23-1.27c0-.46.06-.92.08-1.37a50.27,50.27,0,0,0-3-19.56c-.36-3.2-.79-6.41-1.29-9.6-2-12.36-5.86-25.86-15.21-33.34a31.56,31.56,0,0,0-3.63-6.19l-11.4-18.13a8.16,8.16,0,0,0-2.45-2.56c-1.38-6-4.48-11-10.06-13.65l-.11-.15a155.46,155.46,0,0,0-41.83-36,7.09,7.09,0,0,0-5.12-1c-.16-.18-.33-.37-.51-.54C139.58,11.56,112.6,6.48,86.72,2.62a9.21,9.21,0,0,0-3.81.29c-27.41-1.9-56.28,7-70,32.59-9.14,17-9,36.61-6.72,55.31a8.18,8.18,0,0,0,1.48,9.44c-.47.5-.24,1,0,1.63s.43,1.28.64,1.92a19.87,19.87,0,0,1,.94,3c-.15.42-.28.85-.41,1.28s.27.66.81.67c-.2.51-.38,1-.56,1.56s.9.73,1.27.68a1.9,1.9,0,0,0,1.64-1c.17-.54.38-1.08.58-1.61.14-.34.27-.69.44-1,.48-.92,1.12-1.75,1.68-2.62a31.19,31.19,0,0,0,2.13-3.94,6.83,6.83,0,0,0,2.32-2.85,1.36,1.36,0,0,0,.12-.12c7.38-8.89,12.51-20.06,21.63-27.39,8.69-7,19.79-10.33,30.44-12.92,10-2.44,20.54-4.56,30.95-4.3a114.21,114.21,0,0,0,14.5,6,6.68,6.68,0,0,0,4.93,4.34c7.4,1.91,12.65,7.44,18,12.58l20.09,19.34,15.9,15.31c4.24,8.08,8.22,16.33,12.92,24.15l3.3,6.69a6.17,6.17,0,0,0,.14,4.2,205.17,205.17,0,0,1,10.56,39.51c.63,4,1.17,8.1,2,12.1a8.16,8.16,0,0,0-.59,3.13,203.48,203.48,0,0,0,1.17,20.64,9.11,9.11,0,0,0,.87,3.07q-.06,3.72-.19,7.44a7.52,7.52,0,0,0,.49,3c-1.28,5,2.58,11.31,9,9.48,17-4.86,28.26-18.11,33.74-33.84a6.32,6.32,0,0,0,3.47-4.66A103.23,103.23,0,0,0,254,173.54Z"/><path class="cls-5" d="M224.78,332.45c-.41-1.24-.84-2.47-1.28-3.69a.74.74,0,0,0,.25-.83c-1-3.05-2.07-6.05-3.27-9,0,0,0-.09,0-.13a4.93,4.93,0,0,1,.51-2.1,108.8,108.8,0,0,1-4.13-10.32,8.83,8.83,0,0,0,5.23-5.23c2.93-7,.85-14.54-1.57-21.34-2.62-7.39-5.85-14.56-9.15-21.66-3.63-7.8-7.34-15.55-10.39-23.53q0-8.64.07-17.3a39.84,39.84,0,0,0-1.26-11.51,7.19,7.19,0,0,0,.43-3.34c-2.57-27.83-6.09-57.26-20.31-81.85A166.46,166.46,0,0,0,156.52,90c-9-9.55-18.59-19.81-31.11-24.54a6.08,6.08,0,0,0-6.58,1A54.72,54.72,0,0,0,104,55c-8.55-4.48-16.14,8.47-7.57,13a42,42,0,0,1,9.81,7.13,6.28,6.28,0,0,0,.85,6.24,77.93,77.93,0,0,1,6.24,10.56c-.17,10-.5,20.08.32,29.94s4.95,18.26,12.32,24.45a51.12,51.12,0,0,0,3.65,8.95c5.24,10.05,13.48,18.23,22.67,24.83a6.9,6.9,0,0,0-.93,4.06c.32,6.18.75,12.36,1,18.54.18,5.24.28,10.78-2.3,15.51-2.16,4-5.42,7.23-8.05,10.85a27.53,27.53,0,0,0-5.33,14.29,6.1,6.1,0,0,0,2,5.3,9.37,9.37,0,0,0,.68,1.84c2.45,5,7,7,12,7.05a29.82,29.82,0,0,1,5.64,4c1.16,1.7,2.36,3.36,3.61,5,1.83,4.57,1,9.93,1.9,14.89a13.56,13.56,0,0,0,.25,5.5,11.67,11.67,0,0,0,2.38,4,7.48,7.48,0,0,0,2.43,1.94,2.74,2.74,0,0,0,.58.25s.07,0,.1,0a22.63,22.63,0,0,0,1.61,1.64h.38A30.19,30.19,0,0,1,182.6,298a5.06,5.06,0,0,1,2-.33c8.55.17,14.94,3.21,20.17,10,.5.64,1,1.3,1.48,2-.12,1.05-.24,2.1-.38,3.15-.1.8-.21,1.6-.32,2.39a29.15,29.15,0,0,0-1.6,6.27c-.26,1.9,3,2.55,4.27,1.93a13.4,13.4,0,0,0,1.6,2.88c.71,1,3.51,2.05,4.41.94.55,1,1.08,2,1.61,3a3.37,3.37,0,0,0,2.86,1.38,3.11,3.11,0,0,0,1-.16c.13.33.25.66.38,1C220.67,333.8,225.39,334.34,224.78,332.45Z"/><path class="cls-5" d="M84.51,56.58a161,161,0,0,0-30,8.17,1.89,1.89,0,0,0-1.15,1.13,5.2,5.2,0,0,0-1.66.84l-.44.34a6.83,6.83,0,0,0-4,1.3,80.84,80.84,0,0,0-19,18.48q-4.37,4.25-8.53,8.72a7.47,7.47,0,0,0-1.81,3.23,1.62,1.62,0,0,0-.37.66,64.33,64.33,0,0,0-11.6,25c-.5,1.59-.94,3.19-1.36,4.81,1.76,8.8,3.34,18.21-.43,26.45,4.23,2.9,11.92.92,12.28-5.92a81,81,0,0,1,1.47-11.7,3.88,3.88,0,0,0,.45-.24c.14-.1.32-.27.46-.38l0,0a2.1,2.1,0,0,0,.22-.3,1.49,1.49,0,0,0,.35-.27,1.67,1.67,0,0,0,.53-.59l.16-.45a1.77,1.77,0,0,0,0-.23,1.82,1.82,0,0,0,.48-.55,1,1,0,0,0,.15-.67.86.86,0,0,0-.18-.65l-.34-.34a2.23,2.23,0,0,0-1-.39H19.1c.57-2.14,1.19-4.27,1.92-6.36a8,8,0,0,0,5.29-4.8,122.22,122.22,0,0,1,8.19-17.48A8.61,8.61,0,0,0,41,102.3a29.35,29.35,0,0,0,5.83-7c.7-1.08,1.36-2.19,2.05-3.27.35-.54.7-1.08,1.07-1.61l.27-.4s.12-.09.47-.48a8.48,8.48,0,0,0,2.08-4.67c2.13-1.77,4.29-3.51,6.5-5.19a9.25,9.25,0,0,0,3.46-4.94,96.42,96.42,0,0,1,9.37-6.55l2.58-1.53a1.71,1.71,0,0,0,.43-.36c.63-.35,1.27-.69,1.9-1.05a35.44,35.44,0,0,1,9-4C88.8,60.6,87,56.16,84.51,56.58Z"/><path class="cls-6" d="M127.36,148.05a15.15,15.15,0,0,0-2.86-6c-5.6-12.13-7.56-25.61-10.64-38.54a118.33,118.33,0,0,0-7.37-22.26c-3-6.47-7.15-14-13.5-17.62-15.31-8.75-31.33,13.11-39.4,23.12-11.66,14.47-22.39,29.7-33.42,44.64-3.44,4.66,1.21,11.4,6.48,11.29,10.13-.21,20.83-.58,29.88,4.69,4.48,2.62,8.82,6.3,14.24,6.56a10.9,10.9,0,0,0,3.45-.36,7.65,7.65,0,0,0,4.52-.76l10.75-5.38a32,32,0,0,1,7.13-.12c2.74.23,12.46.85,15.45,3.47.5,1,1,2,1.58,3.05C117.86,161.44,129.27,156.18,127.36,148.05Z"/><path class="cls-6" d="M189.44,296.81a8,8,0,0,0-2.32.33,8.47,8.47,0,0,0-6.84.79,7.06,7.06,0,0,0-6.75-1.67,11.46,11.46,0,0,1-8.94-1.64c-.08-.16-.19-.34-.3-.53-.32-1.85-.95-3.75-1.41-5.57l-3.83-15.18c0-.18,0-.36.06-.54.14-4-1.27-6.89-3.78-9.86a6.37,6.37,0,0,0-8.19-1.5c-3.9-2.58-7.57-5.63-9.83-9.43a101.41,101.41,0,0,1-.53-10.91,6.81,6.81,0,0,0-3-5.89,2.46,2.46,0,0,0,1-.47,11.34,11.34,0,0,0,3.39-5.19c.43-.36.85-.74,1.26-1.13a43.5,43.5,0,0,0,12.68-24.11c.86-5.13,1.25-10.62-.36-15.65-1.68-5.26-4.87-10.16-7.45-15a6.61,6.61,0,0,0-5.44-3.63c-3.54-6.3-13.36-4.06-14,3.67a73.39,73.39,0,0,1-1.06,7.58c-4-.44-8.63,1.94-9.1,7.13-.15,1.63-2.47,4.41-3.78,6.31-3.37-1.38-7.76-.66-9.63,2.91-.42.79-.85,1.58-1.28,2.36a34.75,34.75,0,0,0-7.5-2.25,8.32,8.32,0,0,0-5.55,1,58,58,0,0,0-4-4.31,6.62,6.62,0,0,0-2-2,5.94,5.94,0,0,0-.81-.58c-.36-.33-.72-.66-1.1-1a8.4,8.4,0,0,0-.65-1.81,41.66,41.66,0,0,1-4-13.76,9.73,9.73,0,0,0-1.12-3.65c.11-1.82.25-3.55.31-5,.4-9.66-14.6-9.64-15,0-.08,2-.18,4.07-.23,6.2a7.11,7.11,0,0,0-5.38,5c-.76,2.43-2.53,3.12-4.84,3.74-3.3.89-6.5,1.82-9.29,3.86a12.38,12.38,0,0,0-5.46,9.19,10,10,0,0,0,1.25,5.66s.42.51.89,1.06a1.23,1.23,0,0,1,0,.19,21.68,21.68,0,0,0,.39,5c.06.31.12.62.19.92a7.94,7.94,0,0,0,.81,4.41,5.09,5.09,0,0,1,2,4,4.13,4.13,0,0,0,.06,1.41c-.1-.71-.1-.79,0-.22a5.41,5.41,0,0,0,.12.55c.1.43.25.84.37,1.26l0,0a3.73,3.73,0,0,0,.2.4,5.44,5.44,0,0,1,.56,1.74,6.73,6.73,0,0,0,2.8,1.36,51.83,51.83,0,0,0,4.09,9.81,6.7,6.7,0,0,0,1,4.51c4.89,7.45,10.32,21.66,22.17,18.38a8.15,8.15,0,0,0,2.89-1.43,31.88,31.88,0,0,0,6.41-1.24,9.71,9.71,0,0,0,5.08.51c4.72-.71,8.29-3.53,12.5-5.48A73,73,0,0,1,107.61,244a85.13,85.13,0,0,0,3.48,11.68c1.8,4.73,6.36,10.55,3.73,15.51a35.85,35.85,0,0,1-9.94,11.89h-.76a2.78,2.78,0,0,0-2.75.39,1,1,0,0,0-.43,1.19,1,1,0,0,0,.7.49,19.41,19.41,0,0,1-11.45,2.35,6.26,6.26,0,0,0-4.38,1.4l-3.89,0a40.58,40.58,0,0,0-8.09.47,24.46,24.46,0,0,0-6.72,2.7,19.5,19.5,0,0,0-5.75,4.13c-.45.55.4.82.78.84,4.06.16,8.12.27,12.17.5a43.92,43.92,0,0,1,7.08,3c.51.27,2.6-.06,2.63-.89l.58.26a9.07,9.07,0,0,0,5.59,2.58l.5.06a9,9,0,0,0,1.06.81c7.83,4.93,15.35,9.56,22,16.12,5.74,5.7,11.19,12.5,18.4,16.38a47.3,47.3,0,0,0,5,4.44,13.64,13.64,0,0,0,2,1.33c.5.75,1,1.49,1.47,2.23a8.42,8.42,0,0,0,2.08,2.17A6.57,6.57,0,0,0,146,349l-.09.07a.36.36,0,0,0-.13.32,1.14,1.14,0,0,0,.1.19,1.56,1.56,0,0,0,.23.28.76.76,0,0,0,.19.12,1.31,1.31,0,0,0,.37.15,1.21,1.21,0,0,0,.42.05,2.19,2.19,0,0,0,.51,0,2.74,2.74,0,0,0,.58-.15,3.39,3.39,0,0,0,.53-.2l.27-.16a.9.9,0,0,0,.16-.18,6.92,6.92,0,0,0,6.72-6.1,154.21,154.21,0,0,0,21.26-17c3.44-3.31,9.93-8.75,13.29-14.53C199.08,310.77,198.77,296.81,189.44,296.81ZM80.93,217.67c-2.4,2.41-4.74,5.13-7.35,7.41a6.74,6.74,0,0,0-6.86-1.58A29.85,29.85,0,0,0,62.66,225q-1.95-2.24-4-4.44a1.21,1.21,0,0,0-.59-.32,15.37,15.37,0,0,1-1.23-8,6.27,6.27,0,0,0-2.44-5.83l.06,0c.16-.14.35-.3.31-.54a4.1,4.1,0,0,1-.05-.86,4.24,4.24,0,0,1,.24-1.11c.08-.21-.1-.35-.27-.42a1.28,1.28,0,0,0-.34-.06c.2-.16.41-.33.63-.48l.12-.11a2.26,2.26,0,0,0,.47-.22,4.87,4.87,0,0,0,.68-.2h.05l.1,0,.44,0c.32,0,.64,0,.94-.07s.4.09.61.12a7.54,7.54,0,0,0,3.45.79l.23,0,.33,0c.2,0,.38,0,.56,0h.17a8.87,8.87,0,0,0,1.18-.08c.23,0,.44,0,.65,0l.6,0,.24,0c.19,0,.38,0,.59,0h.06a8.27,8.27,0,0,0,1.14.08h.06a6.22,6.22,0,0,0,.88.17l.1,0a6.78,6.78,0,0,0,1,.28l0,0a6.7,6.7,0,0,0,.92.34,6.41,6.41,0,0,0,.76.32c.12.07.25.13.38.19s.4.29.61.43l.09.07a39.5,39.5,0,0,1,7.08,9.66,7.36,7.36,0,0,0,2,2.46A8.22,8.22,0,0,0,80.93,217.67Zm64.38,81,.26,0a34.91,34.91,0,0,1,4.05,3C148.2,300.59,146.76,299.6,145.31,298.63Z"/><path d="M252.28,415.24q-.3-4.62-.62-9.24a7.48,7.48,0,0,0-2.64-5.16,5.73,5.73,0,0,0-.73-4c-.95-1.65-1.79-3.34-2.56-5.05a237.9,237.9,0,0,0-1.63-45.34,6.71,6.71,0,0,0-3.63-5.21c0-2.3.06-4.6.11-6.9a5.37,5.37,0,0,0-1.84-4.33c-2.13-10.14-5-20.54-13.09-27.64a6,6,0,0,0-9.42,7.27A45.34,45.34,0,0,1,220.32,323c0,.23.08,1.45.13,2.81a45.82,45.82,0,0,1-9.64-14.22,4.42,4.42,0,0,0-.15-.48c-.67-1.72-1.25-3.46-2-5.13a22.75,22.75,0,0,0-3-4.52c-1.85-2.33-5.74-2.12-7.87-.47a5.63,5.63,0,0,0-2.2,5.37v.12a5.65,5.65,0,0,0-1,3.42,19.81,19.81,0,0,1-.12,2.69,6.2,6.2,0,0,0-3.08,1.76,5.42,5.42,0,0,0-3.82.92c-9,5.8-18,11.67-26.36,18.3-5.92,4.66-11.19,9.73-14.68,16.22a169.45,169.45,0,0,0-15.22-15.46c-8-7.32-16.17-14.49-25.15-20.56a93.08,93.08,0,0,0-25.9-12.49,6.13,6.13,0,0,0-3.09-1.35c-.68-.09-1.34-.16-2-.23v0l-.61,0-1.27-.1c-8.3-1.77-18-2.51-24.48,2.79a5.69,5.69,0,0,0-1.64,2.21c-18,8.85-30.54,27.94-35.59,48.35a7.09,7.09,0,0,0,1,6,10.5,10.5,0,0,0-.29,1.65c-.46,5.24,3.09,10.88,6.89,15.61,5.84,11.45,16.26,20.73,27.88,26.32a121.52,121.52,0,0,0,13,5.33q2.76,1.41,5.54,2.76c33.33,16.15,70.26,26.85,107.6,24.4q6.6-.44,13.12-1.4a96.88,96.88,0,0,0,13.64-.43l4.1-.42c14.32,0,28.27-4,41.89-8.09a7,7,0,0,0,4.91-4.75A6.38,6.38,0,0,0,252.28,415.24Z"/><path class="cls-1" d="M81.79,216.91c-2.84-3-4.54-6.54-6.86-9.91-1.48-2.15-3.87-3.14-6.38-3.71a6.28,6.28,0,0,0-1.06-.19,7,7,0,0,0-1.52.12c-.56.08-1.12.2-1.68.29a16.54,16.54,0,0,1-2.33.12,2.73,2.73,0,0,0-.5.05,1.43,1.43,0,0,1-.28-.07,2.19,2.19,0,0,1-.53-.37l-.27,0c-1.91-.88-4.35-1.49-6,.18a7.6,7.6,0,0,0-1.37,2.2c-.07.15-.13.31-.2.46a1,1,0,0,0,0,.1,8.82,8.82,0,0,0-.69,1.88l-.35.73a4.51,4.51,0,0,1-.69,1l.05.13a15.63,15.63,0,0,1,.71,1.75,14.59,14.59,0,0,1,.43,3.22,21.82,21.82,0,0,0,.7,5.6,4.6,4.6,0,0,1,.2,1,13.06,13.06,0,0,0,3.76,5.76,2.82,2.82,0,0,0,2.83.57,8.46,8.46,0,0,0,3.63.77,9.07,9.07,0,0,0,3.18-.65l.55-.25h0a5,5,0,0,0,.87.22,6.25,6.25,0,0,0,2.7-.31c.22-.15.44-.3.66-.43l.87-.56.42-.3c.54-.41,1.06-.85,1.57-1.29l1.26-1.16c.09-.09.2-.15.29-.23l.19-.16a2.6,2.6,0,0,1,.33-.25c1.1-1.3,2.26-2.54,3.34-3.85A23.43,23.43,0,0,1,81.87,217Zm-25.2-2.83a1.21,1.21,0,0,0-.35-.13,17,17,0,0,1-.59-2.9l.06,0c.46.1.92.19,1.4.25l1.45.66a33.15,33.15,0,0,0,4.64,1.63c3.13.84,6.37,1.31,9.32,2.71a3.77,3.77,0,0,0,1.45.34C68,217.34,61.83,217.28,56.59,214.08Z"/></g><g id="linjer"><path d="M260,107.46a35.25,35.25,0,0,1-.66,6.12c-1.06,6.63-4,9.21-10.61,8.6-2.47-.23-2.81-.05-1.89,2.3A202.24,202.24,0,0,1,259,169.25c3.21,22.2-1.49,42.87-15.08,60.6-7.91,10.31-19,17.09-32.87,17-2.85,0-2.56,1.54-1.83,3.08q3.69,7.74,7.71,15.34c2.55,4.81,5.81,9.33,7.79,14.36,1.77,4.48,1.79,9.41-1.36,13.75-.73,1-2.08,2.39.49,2.92,8.58,1.73,13,8.37,17.1,15,5.7,9.21,8,19.62,8.39,30.26a227.86,227.86,0,0,1-.75,28.74,95,95,0,0,0,4.23,36.82,54.92,54.92,0,0,0,1.49,6.52c-1.12-1.85-2.57-3.57-3.31-5.55a147.29,147.29,0,0,1-9-42.74c-.77-12-1.6-24.09-3.46-36-1.29-8.22-4.5-16.13-10.75-22.19a32.53,32.53,0,0,0-6-4.22c-2.12-1.27-3.32-.17-2.93,2,.78,4.26,1.9,8.47,2.94,12.69s2.16,8.15,3.09,12.26c.17.75-.44,1.67-.69,2.51a17.48,17.48,0,0,1-1.15-1.95c-1.85-4.22-3.28-8.69-5.58-12.65-4.94-8.48-3.91-16.71.95-24.44,3.47-5.53,2.8-10.6.46-15.95a21,21,0,0,0-2.9-5c-8.41-10-11.82-22.12-14.56-34.4a83.21,83.21,0,0,1-1.57-18.4c.16-19.69-.58-39.22-6.53-58.22-6.58-21-15.11-41-29.16-58.13a145,145,0,0,0-38.34-32.83c-5.33-3.17-10.74-6.22-15.43-8.92,3,4.23,6.52,8.73,9.52,13.56,4.38,7.07,8.59,14.25,12.87,21.38L130.43,98a151.27,151.27,0,0,0-25.84-32.32c-1.77-1.71-3.39-3.41-1.21-5.94.12-.14-.4-1.2-.66-1.22-3.12-.2-6.25-.29-9.38-.33,0,0-.28,1.31,0,1.5,16,12.71,23.21,29.91,24.68,49.63a107.53,107.53,0,0,0,9.2,37.38l-2.68,1.25c-2-4.29-3.81-8-5.74-11.71-.41-.77-1.79-1.14-2.8-1.45-8.6-2.61-17.32-2.39-26-.79-2.31.43-4.47,1.67-6.7,2.54-.74,0-1-.83-.48-1.4a38.23,38.23,0,0,1,9.51-4.48c7-2.52,14-1.86,21-.18,1.71.41,3.37,1.13,2.58-2.13A105.12,105.12,0,0,1,114,116.12c-1.92-16.05-6.68-31.16-16.12-44.38-9-12.66-7.3-12.29-20.74-3.84-14.94,9.41-26.64,22.46-37.46,36.19C33.48,112,28,120.5,22.18,128.73l-2.38-1.3a193.53,193.53,0,0,1,11-18.68c11.94-17,27-31.09,43.75-43.24,4-2.92,8.75-4.91,12.54-7-31.29-1.63-50.6,18.8-69.18,41.29-4.22,3.1-.53-1.84-.38-2,6.61-9.21,12.14-19.57,20.18-27.31C49.33,59.27,64.58,54.58,80.49,52c13.31-2.18,25.26,1.18,36.89,6.87,15.28,7.48,29.51,16.7,41.32,29a150.6,150.6,0,0,1,29.45,44.89c7.19,16.51,13.14,33.46,15.53,51.38,1.1,8.28,1.17,16.7,1.7,25.05.61,9.54,1.27,19.08,1.8,28.62.2,3.51,2.38,4.19,5.27,4.33,6.66.32,11.7-3.44,16.88-6.74,13.79-8.77,19.33-22.4,22.71-37.64,4.13-18.6-1.41-35.93-6.13-53.35a238.54,238.54,0,0,0-9-26,135.94,135.94,0,0,0-8.43-16.47C212.61,74,190,52.6,164.08,34.34c-17.61-12.41-36.79-22-57.43-27.64C85.62,1,64.19.68,43.57,9.91,31.93,15.13,23.48,24,15.83,33.8,4,48.9,4.29,66.41,5.43,84.35,6,93,8.23,100.93,10.79,109a8.84,8.84,0,0,1,.07,2.42c-.7-.51-1.85-.88-2-1.55-1.89-6.09-4.32-12.13-5.2-18.38-1-7.44-.68-15.07-1-22.61-.83-18,6.76-32.37,18.8-45.16C31.84,12.6,43.89,4.66,58.9,1.58A60.2,60.2,0,0,1,69.4.18C83.67-.18,98-.5,111.7,4.35c8.62,3.06,17,6.88,25.43,10.36,1.44.59,2.64,1.61,4.17-.4,6.18-8.1,15-11.59,24.66-13.4,9.2-1.72,17.69.8,25.8,4.65,21.38,10.16,37.48,26.33,50.12,45.92C252.83,68.43,259.65,87,260,107.46Zm-13,10.7c7.06-2.13,8.16-3.81,8-13.45-.48-3.1-.65-8.29-2.16-13.06C247.64,75,240.77,59.23,230,45.1c-11.39-14.92-24.63-27.21-41.52-35.43C173.37,2.32,159.23,5,145.85,14.11c-3.6,2.46-3.4,2.61.48,4.78,8.23,4.59,16.89,8.65,24.41,14.23,13.19,9.8,26.49,19.73,38.2,31.18,15.28,15,26.91,32.87,35.35,52.69A3,3,0,0,0,247,118.16Z"/><path d="M234.28,136.07s-.16.29-.19.28a6.41,6.41,0,0,1-.69-.29c.15-.14.3-.38.42-.36S234.15,135.92,234.28,136.07Z"/><path d="M201.81,296.71c4.4,3.89,5.21,9.26,4.52,14.76a90.31,90.31,0,0,1-2.31,10c0-4.11.07-8.4-.05-12.69a14.84,14.84,0,0,0-1-3.53c-.93.72-1.91,1.39-2.79,2.16q-15.06,13.19-30.08,26.4c-7.49,6.6-16,12.2-21.31,21-.23.38-.55,1-1.16.86s-.81-.82-1-1.18c-1.18-2.71-1.33-3.75-2.59-5.36-9.67-9-19-18.34-28.92-27-12-10.52-25.08-19.38-41.1-22.48a40.24,40.24,0,0,0-7.67-.75V297c1.64,0,3.18,0,4.73.05,10,.42,18.59,5.08,27,10,18.53,10.77,32.7,26.64,47.88,41.32,1,1,1.28,2.6,3.2.44,13.8-15.53,28.21-30.46,44.76-43.18a17.44,17.44,0,0,0,2.62-3.24,50.54,50.54,0,0,0-4.41-2.51c-2-.93-4.12-1.78-6.2-2.62l1-2.39a32.87,32.87,0,0,0,6.18,1.64c-5.46-6.22-7.37-13.05-5.14-20.19,2.09-6.7,5.37-13,8.63-19.41.61,5.86,1.54,11.51-.69,17.28C192.06,284.06,193.82,289.63,201.81,296.71Z"/><path d="M92.84,193.34a34.88,34.88,0,0,1-4.57-3.19C82,185.89,79,179.59,78,172.45c-.07-.54-.22-2.69-.78-2.69-.65.24-.39,2.54-.34,3.07.55,7.19,2.83,13.65,8.84,18.06A12.73,12.73,0,0,0,92.84,193.34ZM187,294.78l-1,2.39-2.29-.92.08-.1-.31-.07c-3.87-2.93-5.25-7-5-11.7a59.29,59.29,0,0,1,1-7.74c1.69-8.71-2.07-14.82-10.59-17-3-.79-6.05-1.52-9-2.42l-.89-.27c-5.58-1.74-8.87-5.68-9.1-11.45-.41-10,3.36-23,15.64-27.26,7.49-2.6,9.15-8.16,5.1-15.09-3.74-6.39-9.14-11.19-16.64-15.15,4.78,12.61,1.52,23.39-4.93,33.43-2.95,4.6-6.83,8.59-9.93,13.1-3.58,5.22-2.72,11.36,1.16,16.37,3.53,4.54,8.56,4.94,13.48,6a15.71,15.71,0,0,1,5.51,2.26,10.18,10.18,0,0,1,4.45,8.19,48,48,0,0,1-.72,10.13c-1,6.82.8,13.33,5.5,15.08s10,2.41,15,3.52a1.56,1.56,0,0,0,.2.16h0c-.46.61-.83,1.46-1.44,1.67-5.76,2-17.7-1.65-21.1-6.88-2.15-3.32-4.58-3.21-7.65-2.29a21.19,21.19,0,0,1-3,.49,13.34,13.34,0,0,1,2.81-2.44c.93-.42,2.29.11,3.23-.29a3.44,3.44,0,0,0,1.93-2.2c.24-4.24.15-8.49.26-12.73.17-6.36-1.42-8.38-7.93-9s-11.5-3-15.31-8.42a18.35,18.35,0,0,1-3.4-10.54,23.65,23.65,0,0,1,.14-3.13c.31-2.87-.69-3.27-2.73-2.6l-.53-1.61,2.69-.89a6.66,6.66,0,0,0,2.72-2.23c2.76-3.41,5.48-6.84,8.09-10.37,7.09-9.59,11.65-19.91,7.79-32.08a28.35,28.35,0,0,0-4.64-8.84c-3.29-4.18-7.36-7.74-10.73-11.86s-3.3-4.33-5.59.63a13,13,0,0,0-.56,2.37c-2.66,10.83-7.65,20-18.42,24.7-7.25,3.18-14.56,5.83-22.44,1.42-9-5-13-12.88-14.32-22.68a65.52,65.52,0,0,0-3.1-12.58c-.43-1.25-2.67-2-4.2-2.63A7.39,7.39,0,0,0,64.52,164c-2.2,6.92-4,14-9.48,19.33-.31.3.36,1.68.68,2.52a18.73,18.73,0,0,0,1.05,2,11.65,11.65,0,0,1-2.31.4c-2.36-.07-4.8-.69-7.07-.31a75.18,75.18,0,0,0-10.64,2.91A2.59,2.59,0,0,0,35.38,193c4,17,8.86,33.74,16.63,49.53,4,8.05,10.49,11,20.45,11.19l.13,1.7c-11.13,1-18.89-4.3-25.11-16.27-7.62-14.66-12.24-30.34-15.25-46.53a4.45,4.45,0,0,0-2.46-3c-6.47-1.91-9.83-6.51-12-12.55-4-11.23-4.77-22.75-3.65-34.52.3-3.11,2.26-4.39,4.72-5.57.76-.36,1.18-1.45,1.75-2.2l2.33-.2a8,8,0,0,1-.31,1.13,10,10,0,0,0,1.71.19c13.9-.78,26.94.82,37.59,11.34,6.08,6,12.22,6.28,19.64,2a41.93,41.93,0,0,1,21.16-5.54A41.07,41.07,0,0,1,126,151q-.77-1.58-1.47-3.06l2.68-1.25a92.08,92.08,0,0,0,6.14,11.25c.72,1.11.83,2.6,1.49,3.76,3.59,6.39,7.81,11.91,14.62,15.65,8.76,4.81,17.42,10.23,23,18.94a34,34,0,0,1,5,11.08c1.82,8.95-.92,14-9.23,17.93-7.59,3.55-10.6,10-12,17.56-.73,4,1.05,6.65,5,7.73a60.32,60.32,0,0,0,8,2c6.57.87,11.74,4.32,14.05,10.13,1.65,4.13,1.13,9.21,1.19,13.87,0,2.86-.75,5.71-1,8.58C183,291,183.38,293.28,187,294.78ZM106.73,155.24c.61-.27,1.27-1.32-.26-2.47-1.73-1.3-4-2-8.43-1.42a42.87,42.87,0,0,0-10.27,3.25c-1.73.78-4.68,2.72-4.16,4.62.77,1.78,4.14,1.05,6.09.51,3.94-1.09,8-1.8,12-2.82A33.94,33.94,0,0,0,106.73,155.24Zm-69-7.37a1.35,1.35,0,0,0,.82-2.18c-2.24-2.7-15.14-4-18-1.78A2.85,2.85,0,0,0,19,147.16c.28,1.11,2.14,1.87,3.38,2a26.44,26.44,0,0,0,5.49.16A76.78,76.78,0,0,0,37.76,147.87ZM24.17,177.46c-1.65-4.12-3.48-8-4.74-12.05-.83-2.7-.81-5.65-1.23-8.49-.07-.47,0-1.21-.62-1.37s-.78.63-.89,1C15,162.73,19,173.86,24.17,177.46Z"/><path d="M185.44,218.22l-1.49.1c-.45-2.59-1.09-5.17-1.29-7.78q-.66-8.59-.94-17.22c-.26-8.6-2-16.19-9.27-22.17-6.33-5.2-7.79-13.29-8.81-21.09a54.61,54.61,0,0,1,0-9.31c0-.62.84-1.21,1.28-1.81a6.62,6.62,0,0,1,1,2.21c.38,8.87,1.89,17.39,7.32,24.74a46.35,46.35,0,0,0,3.53,4,23.24,23.24,0,0,1,6.29,14.76Q184.27,201.44,185.44,218.22Z"/><path d="M183.77,296.15l-.08.1h0a1.56,1.56,0,0,1-.2-.16Z"/><path d="M160.78,167c.25.72.5,1.43.76,2.15-.86-.15-1.92,0-2.55-.49-5.8-4.34-8.53-10.59-10.21-17.34-1.22-4.92-1.93-10-3.06-14.91A134.22,134.22,0,0,0,130.43,98l2.37-1.42c2.61,4.36,5.25,8.71,8,13,7.64,12.1,10.72,25.64,13.78,39.31C155.94,155.05,158.66,161,160.78,167Z"/><path d="M101.33,286.2a4.92,4.92,0,0,0,1.39.32q12.94.51,25.91.92c2.89.09,5.79,0,8.68,0,.05.38.11.75.16,1.13a20.16,20.16,0,0,1-4.1,1.21,165.81,165.81,0,0,1-16.8.86C106,290.36,95.5,289.24,85,289.12a34.54,34.54,0,0,0-12.32,2.22l-.79-2.13Q81.66,285.6,91.5,282c2.82-1,5.83-1.53,8.61-2.62,12.71-5,16.22-19.59,7.47-30-1.82-2.16-3.25-2.24-5.89-1.42-8.68,2.66-17.41,5.44-26.32,7-1,.17-1.87.29-2.78.37l-.13-1.7a51.72,51.72,0,0,0,7.33-1.41q24.63-7.86,49.19-16l.53,1.61-.57.2c-6.1,2.3-12.19,4.62-18.35,6.75-2,.7-2.33,1.23-.63,2.67,4.76,4,6.28,9.66,6.38,15.45.19,10.12-5,17-14,21.29a8.35,8.35,0,0,0-1.84,1.69C100.74,286,101,286.11,101.33,286.2Z"/><path d="M88.71,216.21c2.06-.16,2.56.32.3.74l-6.77.52c-1.74,0-1.56-.86-.08-1C84.4,216.18,86.46,216.53,88.71,216.21Z"/><path d="M71.64,214.9A6.81,6.81,0,0,1,75,216.53a20.93,20.93,0,0,1-3.47,1.05c-8,1-15-1-20.42-7.86C58,211.29,64.73,213.22,71.64,214.9Zm-5.06,1.38a10.25,10.25,0,0,0,1.69-.51,5.34,5.34,0,0,0-1.5-1c-3.37-.83-6.76-1.56-10.15-2.33C59.26,215.81,62.69,216.78,66.58,216.28Z"/><path d="M71.85,289.21l.79,2.13A63.91,63.91,0,0,0,61.23,297c1.86,0,3.56,0,5.18,0v1.92c-10.38,0-19.53,4.28-27.74,11.63-14.12,12.64-21.18,29.05-25,47-1.6,7.61-2-12.67,3.73-24.93,9.05-19.26,23.87-32.06,43.64-39.41Z"/><path d="M72.54,188c-1.79.82-2.54,2.58-5.61,2.58-2-.28-2-1.44-2.82-2.05,1.32-.86,2.61-2.34,4-2.4S71.05,187.27,72.54,188Z"/><path d="M67.34,203.14c1.67.54.71,1.1-.12,1-3-.32-6.46.73-9.18-.7-.65-.34-1.35-.23-1.35-.61.12-.54,1-.85,2.38-.23C61.63,203.78,64.5,202.65,67.34,203.14Z"/><path d="M71.91,226.48c-5.51,4.84-13.91,3.79-17.1-2.18C59.9,228.89,65.86,227.07,71.91,226.48Z"/><path d="M57.61,133.44c-2.84-.67-4.76-1.21-6.71-1.57-5.6-1.05-11.22-2.74-16.84-2.77-3.47,0-7,2.44-10.38,4-.38.17-.56.79-.73,1.43l-2.33.2c-.86,0-1.72,0-2.58.09-.62.06-1.22.22-1.83.33a8,8,0,0,1,.55-2.27c1-1.81,2-3.64,3-5.47l2.38,1.3A32.18,32.18,0,0,1,57.61,133.44Z"/><path d="M21.22,103.93c.63-.8,3.39-2.35,3.85-.88a5.44,5.44,0,0,1-1.44,3.21c-4.81,6.66-9.9,13.12-14.47,19.94a16.36,16.36,0,0,0-2.1,15.51c2.9,8.31-1.28,15.64-5.29,22.7A11.6,11.6,0,0,1,0,167.09a22.83,22.83,0,0,1,.53-3.72c.75-2.76,1.49-5.52,2.38-8.23,1.65-5.11,1.85-10-.41-15.14s.06-10.28,2.64-14.38C9.92,118,15.67,111,21.22,103.93Z"/></g></g></svg>