<svg xmlns="http://www.w3.org/2000/svg" viewBox="0 0 197.32 208.86"><title>Asset 2</title><g id="Layer_2" data-name="Layer 2"><g id="Layer_6" data-name="Layer 6"><path d="M187.34,102.61c7.09.66,9.44,3.39,9.87,10.42.71,11.74-2,23-4.24,34.36a14.66,14.66,0,0,0-.38,1.84c-.61,8.91-4.52,11.12-14,9.46-1.2,7.12-2.36,14.24-3.59,21.35-1.28,7.4-4.51,13.48-12.36,15.44-3.61.9-7.48.84-11.25,1.05-10.58.58-21.16,1.07-31.75,1.61a8.8,8.8,0,0,0-1.39.32c-.85,7.9-.87,8.59-9.22,9.52a170.78,170.78,0,0,1-26.28.66c-4.86-.22-6.48-3-6.87-7.84-5.39,0-10.79.06-16.18,0-8.8-.12-17.7.46-26.35-.75-6.56-.92-10.07-7-11.92-12.93-1.92-6.16-2.72-12.66-4-19-.27-1.33-.55-2.65-.81-3.91l-10.14-1.4c-1.6-5.2-4.09-10.65-4.85-16.34A241.17,241.17,0,0,1,0,119.27c-.16-7.76,2-10,9.15-11.45-1-10.26-2.3-20.47-3-30.72-.52-7.35,3-13.08,10-15.24a174.6,174.6,0,0,1,26.25-6c10.82-1.61,21.79-2.22,32.88-3.28.79-8.07,6.55-11.32,13.13-13.52a4.81,4.81,0,0,0,3.76-4.42C92.91,29.5,94,24.35,95,19.12c-6.81-6.68-5.13-13.35-.32-17.26,3.84-3.12,12-2.15,14.74,1.72,2.87,4.06,3.51,11.91-4.77,16.5l3,16.67C115.52,38.63,124,40,126,50.61c3.64-.21,7.41-.62,11.18-.61,7.33,0,14.66.42,22,.41,6.63,0,13.07.63,19,4,6.37,3.62,10.28,8.77,11.53,16.23,1.69,10.08-.54,19.74-2.16,29.51C187.36,100.94,187.39,101.79,187.34,102.61ZM104.17,4.84c-.34-.48-.57-1.23-1-1.4a6.8,6.8,0,0,0-6.35,11.75c2.72,2.2,5.66,2.28,8.27.05s3.93-4.88,1.46-8.11ZM49.08,199.08l0-1.08c7.19,0,14.4.15,21.59-.05,5.43-.15,10.85-.73,16.28-1.12,11.73-.86,23.45-1.76,35.19-2.57s23.43-1.45,35.13-2.32c4.51-.33,7.92-2.79,10.57-6.4,3.38-4.6,3.75-10,4.41-15.39,1.23-10.11,2.86-20.18,4.29-30.27,1.46-10.35,3-20.69,4.3-31.06s2.8-20.53,3.31-30.84a33,33,0,0,0-2.81-14.25c-3.4-7.76-11-9.2-18.47-9.38C138.2,53.75,113.6,55.8,89,57c-17.56.87-35.06,1.89-52.45,4.21a94.36,94.36,0,0,0-19.26,4.84C12.55,67.76,10,71.93,10.1,77.16a136.47,136.47,0,0,0,.69,14.74c1.54,12,3.59,24,5.13,36,1.71,13.35,2.85,26.78,4.71,40.11,1.19,8.53,2.62,17.21,8.16,24.26,1.83,2.33,4.44,4.78,7.15,5.53C40.11,199,44.68,198.74,49.08,199.08ZM116,50.82l.81-.93-5.27-6.44c5.24.41,6.37,1.44,7.68,7l2.46-.22c-.82-7.25-8.1-10.23-23.46-9.78-7.65.22-17.77,6.9-18,11.76ZM190.64,141c1.46-11.45,4.32-22.09,1.58-33.35l-5.79-.4c-1.68,11.38-3.36,22.71-5.14,34.68ZM5.27,145.76l10,1.93c-1.76-11.84-3.4-22.9-5.07-34.1-2.64-.64-4.93-.45-5.58,2.6a31.7,31.7,0,0,0-.8,7.81C4.14,130.88,4.73,137.75,5.27,145.76Zm75.84,59.81c7.93,0,15.36.18,22.77-.08a36.09,36.09,0,0,0,9.52-1.8c2.59-.81,3.74-2.74,2-5.31L79.5,199.76C80.12,202,80.6,203.73,81.11,205.57Zm98.61-56.27h8.44c.54-2,1.12-4.2,1.72-6.42h-8.79C180.66,144.87,180.23,146.91,179.72,149.3ZM7.66,154.1l7.81.46L15,149l-8.69-1.19ZM179.21,151c-.12,1.9-.22,3.41-.32,4.91,6,.6,7.4-.23,8.78-4.91ZM11,161.71h5.47c-.32-2.4-.58-4.28-.79-5.85H8.17ZM104.82,33.93c-9.44-.66-10.25-.38-10.95,3.79l11.37-1.25C105.12,35.71,105,34.9,104.82,33.93Zm-.54-2c-1-2.54-6.65-3.84-9-2.36l-.63,3.1Zm-8.21-4.45h7.3l-.86-2.72H96.07Zm1-7.46-.33,2.89h5.81V20.61Z"/><path d="M77.89,140.09c19.11,0,38.23,0,57.34,0,4.17,0,8.33-.46,12.49-.58s6.06,1.49,6,5.86q-.22,15.09-.73,30.17c-.11,3.34-2.5,4.35-5.47,4.44-7.6.21-15.19.47-22.78.65-13.93.31-27.86.56-41.78.87-7.47.17-14.94.48-22.41.57-5.88.07-7.77-1.17-8.83-7-1.57-8.73-2.82-17.55-3.69-26.37-.47-4.8,1.51-6.57,6.38-6.87,7.82-.47,15.64-.78,23.46-1.15Zm70.49,35.16c1.13-10.47,1.45-19.94,0-29.41-.43-2.81-2.36-4-5.07-4.06-4.54,0-9.09-.08-13.62.06-13.4.42-26.8,1.07-40.2,1.36-12.23.28-24.48.21-36.2.29-4.2,8-1.47,28.64,4.2,35,6.84-.3,13.91-.75,21-.89,19.89-.38,39.78-.57,59.66-1C141.43,176.51,144.73,175.74,148.38,175.25Z"/><path d="M44.61,81.09c14.44-7.21,25.12-5.93,33.94,2.82,12.31,12.21,9.83,23,5.67,30.62-5.6,10.22-18.39,15.29-29.25,11.69a28.92,28.92,0,0,1-11.62-7.28,31,31,0,0,1-6.64-12.3C35.49,102.35,36,97.55,35.8,93c-1.89-1.49-3.95-3.29-6.17-4.86C26.53,86,27,83,27.84,80.08s3.23-3.92,6.2-3.8C38.2,76.44,42,77.33,44.61,81.09Zm39.85,21.43C83.72,90,74.29,77.64,60,78c-14.86.35-22.5,10.4-22.46,22.9,0,14.08,10.9,23.65,23.84,24C74.53,125.2,84,113.14,84.46,102.52ZM43.33,82.25c-2.33-3.45-6.19-4-9.8-4.25s-5.54,3.19-3.8,6.59a10.73,10.73,0,0,0,7.56,6Z"/><path d="M155.15,78.46c4.37-1.64,8-3.56,11.88-4.22,1.8-.31,5.12,1.35,5.79,2.94a9,9,0,0,1-.68,7.32c-1.67,2.61-4.65,4.39-7.54,6.93a24.78,24.78,0,0,1-3.06,21.91A23.54,23.54,0,0,1,148.87,123a25.73,25.73,0,0,1-30.19-11.8c-6.44-11-4.81-23.37,4.32-31.91C130.87,71.93,144.08,70.06,155.15,78.46Zm7.72,21.08c0-13.78-10.49-25.07-23.67-24.64-14.73.47-22.47,10.23-22.49,22.85,0,13.92,10.64,23.82,23.72,24C153.86,122,162.68,111.38,162.87,99.54ZM157.17,80,164,89c2.2-1.87,4.83-3.46,6.49-5.75,1-1.37,1.28-4.45.39-5.65S167,75.53,165.31,76C162.54,76.65,160.06,78.51,157.17,80Z"/><path d="M81.43,72.05a34.56,34.56,0,0,1-4.74,1c-11.35.82-22.71,1.55-34.07,2.3-.89.06-1.77.16-2.65.2-4.85.24-6.35-1.37-5.87-6.26.1-1,.17-2,.31-3.78,2.71-.89,5.57-2.29,8.56-2.71,7.13-1,14.31-1.71,21.5-2.17a71.76,71.76,0,0,1,11.71.47c4.94.5,5.24,1,5.25,5.87Zm-43.74-.27c6.29,0,12.49.18,18.66,0s12.32-.85,18.47-1.32c2.08-.15,4.21-.94,3.46-3.31a5.35,5.35,0,0,0-4-2.88c-7.68-.22-15.38-.16-23.06.12A48.83,48.83,0,0,0,40.05,66C37.56,66.65,35.68,68.61,37.69,71.78Z"/><path d="M164.39,69a22.69,22.69,0,0,1-4.23,1.12c-11.95.84-23.9,1.58-35.86,2.33a18,18,0,0,1-2.39-.2,27.48,27.48,0,0,1-1.55-3c-2.49-6.65-1.18-8.95,5.85-9.68,8.62-.9,17.26-1.67,25.92-2.22a29.21,29.21,0,0,1,9,.87,5.42,5.42,0,0,1,3.14,3.47C164.78,63.85,164.39,66.22,164.39,69Zm-41.52.12c2.83-.15,5.6-.35,8.38-.45,8.84-.29,17.68-.53,26.52-.82,2.61-.09,4.34-1.21,4.39-4.1s-1.75-3.52-4.23-3.5c-5.67,0-11.35-.22-17,0-4.48.22-8.91,1.29-13.38,1.55C122.19,62.17,121.75,62.5,122.87,69.14Z"/><path d="M27.88,181.63c-5.87-12.86-5.29-26.72-6.8-40.27l1.26-.18c.67,6.76,1.13,13.55,2.05,20.28S26.7,174.91,27.88,181.63Z"/><path d="M30,186.2l12.74,9.61C38.15,195.61,30.9,190.06,30,186.2Z"/><path d="M104.29,4.75l2.3,2.3c-.08,6.07-.36,6.54-4,6.86-.28-2.54-.55-5.09-.91-8.33Z"/><path d="M142.67,150.59c-.4,5.46-.6,10.35-1.19,15.19-.31,2.62-2,4.08-4.94,4.17-14.92.44-29.84.93-44.76,1.55-9,.37-17.92,1-26.89,1.51-1.25.07-2.5,0-3.9,0-3.43-6.53-3.52-13.35-3-21.11a46.72,46.72,0,0,1,6.26-.86c9.21-.07,18.41,0,27.62,0,.51,0,1,0,1.52-.05,14.37-.56,28.75-1.16,43.12-1.61C138.42,149.36,140.32,150.12,142.67,150.59ZM77,168.81c-.33-2.6-.63-4.92-.91-7.13h-7l1.13,7.13Zm9.22-6.28-.46-1.81-8.42.53,1.22,7.49,7.79-.45-.71-3-6.33.51-.22-.92Zm42-2.74h5.53c.32-2,.61-3.76.92-5.71h-6.26c.56,1.51,1,2.71,1.48,4Zm-50.46-1.58h8v-3.32h-8Zm-13.46-4c-4,2.33-3.87,11.52-.31,15.11-.18-3.5-.32-6.37-.46-9.24l-.76.13C63.23,158.55,63.67,156.85,64.33,154.24Zm31.34,10.33-8.08,1.05.16,2.59h7.92Zm17.88,3.1,5.94-.32c-.07-1.64-.13-2.83-.19-4.37l-5.75.48Zm-47.87.94h2.53v-7.23l-3.45-.27C65.09,163.82,65.36,166.06,65.68,168.61Zm68-7.24-4.84,1.11v4.18h4.84Zm-64.2-6.58v3.47h6.64c-.15-1.34-.26-2.39-.38-3.47Zm51.71,8.28v3.6h5.61v-4.55ZM96,157.56c-.51-1.23-.87-2.09-1.15-2.78h-7V158Zm15.77,6.54h-7l1.38,3.31h5.67Zm-7.91-7.25c-1.68-4.23-4.55-2.1-7.12-2.6.09,1.33.17,2.32.27,3.64Zm7.66.46c.11-1.25.18-2.11.26-3.05H104C105.41,159,109,155.93,111.49,157.31Zm-8.3,10.63.21-3.11h-6l.18,3.55Zm-7.11-7.4c-5.37-.92-8.13,0-8,2.6C90.68,162.23,94.3,164.84,96.08,160.54Zm25-6.44c.11,1.13.19,1.92.26,2.69h6.3V154.1Zm-1.73.12h-5.9c.14,1.06.24,1.85.33,2.57h5.57Zm19.19,4.88c-.1-1.89-.17-3.37-.26-5.1l-2.6.21V160Zm-18.62-.67c-2.65.73-5.77-1.51-6.58,3C116,161.36,118.46,162.13,119.87,158.43Zm-22.64,1.84-.49,1.33,6.78,1-.43-3.14Zm8,2.14,6.74-1.72-.35-1.24h-6.53C105.18,160.38,105.22,161.19,105.27,162.41ZM138.39,161l-3,.89v4.73h3Zm-70.12-2.67L68,153.55c-1.6,1.49-2.61,2.14-3.14,3.06-.32.56.1,1.55.21,2.47Zm59.3,1.73-.23-1.28c-2.16,0-4.58-1.27-6.31.83l.25,1.33Z"/><path d="M42.6,100.89A18.77,18.77,0,0,1,61.07,82.37c9.8-.2,19.08,9.16,18.88,18.6A19,19,0,0,1,61.19,119.7,18.77,18.77,0,0,1,42.6,100.89ZM64,88.38c-.43.36-2.16,1.1-2.4,2.17-.42,1.92-.55,4.34.29,6,1.58,3.11,4,5.81,6,8.68a4.25,4.25,0,0,0,7.24-.52C78.27,99,71.67,88.22,64,88.38Zm-11.61,21c-.1,4.3,2.22,7.07,6,7.19,3.64.11,7.54-3.49,7.67-7.09.12-3.42-3.49-6.7-7.38-6.7C55.14,102.78,52.5,105.53,52.41,109.38Z"/><path d="M40,84.63c-1.73.75-3.42,1.84-5.21,2.07-.66.08-2.27-2-2.19-2.91s1.56-2.91,2.48-2.94c1.6,0,3.24,1,4.86,1.61Zm-7.35-.12a20.68,20.68,0,0,0,4.16.73c.45,0,1.29-1.24,1.15-1.58A11,11,0,0,0,36,81.28C34.9,82.33,34.2,83,32.6,84.51Z"/><path d="M121.76,97.93a18.72,18.72,0,0,1,18.77-18.6c9.62-.07,18.74,9.17,18.58,18.51a19,19,0,0,1-18.67,18.82A18.77,18.77,0,0,1,121.76,97.93Zm22.5-12.57c-.86.69-2.89,1.59-3.64,3.12-.58,1.17.18,3.25.83,4.71,1.1,2.51,2.67,4.81,3.86,7.28,1.3,2.7,4.16,3.32,6.4,1.23,2.64-2.46,3.11-6,1.53-10.11C151.85,87.91,149.27,85.89,144.26,85.36Zm-1.13,20.2c.07-4.31-3-7.85-6.85-8a7.18,7.18,0,0,0-7.1,6.84c-.13,4.23,3.27,8.09,7.23,8.2C140.19,112.73,143.07,109.71,143.13,105.56Z"/><path d="M160.89,80.59c1.55-.8,3.06-2.07,4.66-2.2.9-.08,2.51,1.62,2.76,2.75.2.93-1.16,3.15-1.78,3.13-1.82,0-3.61-.94-5.41-1.5Zm3.85-2.52c-.89,2.07-1.3,3-1.7,4A11.71,11.71,0,0,0,166,83c.46,0,1-.85,1.69-1.49Z"/></g></g></svg>