<svg xmlns="http://www.w3.org/2000/svg" viewBox="0 0 419.9 402.7"><defs><style>.cls-1{fill:#91bfe2;}.cls-2{fill:#f2bc41;}.cls-3{fill:#d1d3d4;}.cls-4{fill:#a7a9ac;}.cls-5{fill:#1b75bc;}.cls-6{fill:#e6e7e8;}.cls-7{fill:#808285;}.cls-8{fill:#939598;}.cls-9{fill:#55a55c;}.cls-10{fill:#da503e;}</style></defs><title>Asset 1</title><g id="Layer_2" data-name="Layer 2"><g id="Layer_5" data-name="Layer 5"><path class="cls-1" d="M205.11,399.43c20.27-3.14,40.33-7.9,60.5-11.75,9.51-4.68,19.47-7.56,30.33-5a4,4,0,0,1,.52.16c1.32-.15,2.63-.3,3.94-.43a214.86,214.86,0,0,0-1.54-37c0-.15-.06-.29-.09-.44,1.54-3.51-.76-8.39-4.94-7.1l-1-1.25a19.48,19.48,0,0,0-2.3-2.24,25.39,25.39,0,0,0-6.06-3.65c-2.41-1.07-5-1.88-7.52-2.92,0-.36.1-.72.14-1.08h0c.06-.46.1-.93.15-1.39a66.55,66.55,0,0,0,.64-18c-.17-1.78-.37-3.58-.64-5.36a208.43,208.43,0,0,0,3.11-25.52,4.22,4.22,0,0,0-2-4.14c2-8.25,3.35-16.89,3-25.31a4.47,4.47,0,0,0,.49-1.33c.41-2.07.81-4.15,1.21-6.22a5.23,5.23,0,0,0-.63-3.92c1.94-1.89,2.87-4.49,1.75-8.1-2.52-8.12-14.59-7.76-21.28-7.51a8.71,8.71,0,0,0-4,1.07,7,7,0,0,0-2-1.66c-4-2.09-9.31.25-12.9,2.35l-.14,0c-2.6-3-8.91-2-8.89,3.15q0,11.51.07,23a4.68,4.68,0,0,0-2.43,3,8.08,8.08,0,0,1-1.19,2.49c-4.73,1-8.71,3.32-12.63,5.94a4.48,4.48,0,0,0-3.46-1.27q-12.51.43-25-.31a5.21,5.21,0,0,0-5.05-2,130.16,130.16,0,0,1-19.62,2.34,111.31,111.31,0,0,0-9.49-25.33,5.29,5.29,0,0,0,1.32-4c1.47-2.91.05-7.46-4.26-7.61-6.46-.22-12.93-.44-19.4-.15-4.73.21-10,.07-14,2.7a4.7,4.7,0,0,0-3,4.41,88.62,88.62,0,0,0,4,28.69,5.43,5.43,0,0,0-.23,1.25,67,67,0,0,0,1,16.67,4.77,4.77,0,0,0-1.36,3.4q.55,12.17,1.12,24.34a5.15,5.15,0,0,0,.23,1.35,5.23,5.23,0,0,0-.73,3.86,18.19,18.19,0,0,1,.36,3.67,5.55,5.55,0,0,0-.64,5.08c-.95,4.48-1.58,9-2.16,13.6-2.75-2.58-7.2-.92-8.32,2.08-.4-.66-.79-1.33-1.21-2a5,5,0,0,0-9.24,3,4.66,4.66,0,0,0-1.82,1.57c-3.48-1.35-8,1.16-6.72,5.73.8,2.9,1.69,5.82,2.54,8.75a49.42,49.42,0,0,0,.48,5l1.35,19.34c.3,4.27.53,8.56.89,12.83.22,2.56.39,4.7,1.89,6.37a30.15,30.15,0,0,0,3.63,6.05c6.89-1,13.79,0,20.64,1.27a156.71,156.71,0,0,0,24.63,2.86A332.81,332.81,0,0,0,205.11,399.43Z" transform="translate(-0.25 -0.25)"/><path class="cls-1" d="M225.17,221.54a9.16,9.16,0,0,0-2.7-4.66l-.17-.33a.5.5,0,0,0-.28-.9.46.46,0,0,0-.32.12,4.6,4.6,0,0,0-3.47-1.41,5,5,0,0,0-2.49.64c-.27,0-.55.09-.83.16a5.08,5.08,0,0,0-3.67,4.82c-.22,3.69.6,8-2.63,10.63-2.63,2.15-7-1.47-10-2.47-6.08-2-13.92-2.85-18.12-8.16l-.06-.16a5.09,5.09,0,0,0-1.57-2.17,4.47,4.47,0,0,0-.91-.84,5,5,0,0,0-7,0,5.1,5.1,0,0,0-2.64,4.2c-.29,9.19-3.89,28.36,10.1,28.4,5.58,0,11.42-1.57,16.95-2.66a4.88,4.88,0,0,0,3.37,1.38,13.6,13.6,0,0,0,2.4-.11,131,131,0,0,0,16.18-1.77c4.81-.83,9.07-2,9.24-7.68A68,68,0,0,0,225.17,221.54Z" transform="translate(-0.25 -0.25)"/></g><g id="Layer_5_copy" data-name="Layer 5 copy"><path d="M395.42,198.54h.27l-.06,0,.08,0h.13s0-.07,0-.11a60.81,60.81,0,0,1,18.44-10.24c1.91,3.19,4,6,5.39,9.2,1.09,2.48.12,4.78-2.39,6.34q-19.1,11.88-38.13,23.84c-5.3,3.32-10.65,4.23-16.09.23-5.77-4.24-11.74-8.24-17.33-12.73-3.53-2.84-3.76-7-2.2-11.05a8.09,8.09,0,0,0-.64-7.85c-2.15-3.52-3.62-7.46-5.85-10.91-2.93-4.5-2.16-9.29-1.55-13.94l2.32.31v6.19l7-5.47c-.68-2.16-1-3.31-1.68-5.29l-.22-2a6.7,6.7,0,0,1,5.2,1.1c3.28,2.89,6.26,6.11,9.54,9a24.49,24.49,0,0,0,4.46,2.5c2.47-6.56,4.75-12.87,7.24-19.09,1-2.57,5.18-4.41,8.45-4.3l-.07,3-3.4,2.34c4.1,4.44,4.93,4.6,9.21,1.64l2.13-2.11c.49.42,1,.83,1.42,1.2-1.21,7.29-2.3,13.84-3.39,20.39,4.46-5.37,7.36-11.86,15.08-12.85,5.62,7.06,5.66,13.19,1,20.62-1.86,3-2.66,6.61-3.94,9.95l-.11.09h0Zm17,1.44,5.15-1.65c-1.66-2-2.74-3.92-4.35-5.06-.73-.52-2.51.44-4.26.83Zm-8.06,6.47c5-2.59,5.69-5.62,1.65-10.49L393.5,205.7c.61,1.92,1.17,3.71,1.82,5.74C398.7,209.57,401.5,207.94,404.38,206.45ZM400.08,176c-1-4.3-1.59-4.57-6-2.64l2.42,4.76Zm-5.72,9.37c3.19-3.22-3.13-5-3.86-8.25l-7.37,13.27,2.91,4.15C392,194.53,391.5,188.22,394.36,185.34Zm-3.65,29.95c-1.52-3.73-2.45-7.48-4.43-10.55-4-6.27-8.67-12.18-13-18.24-2.56-3.54-6.09-5-11.72-5-2.53,4.69-5.21,9.59-7.81,14.53-1.39,2.64-2.25,5.66-4.05,8-2.61,3.34-3.27,4.83-.22,7.79,3.82,3.7,8.36,6.64,12.34,10.19,5.6,5,10.82,5.82,16.9.46C382,219.49,386.33,217.81,390.71,215.29Zm-18.22-35.42c1.42-4.59,2.82-9.09,4.25-13.69l-4-3.77c-5.4,3.9-4.86,10-6.9,14.86Zm-19,8c-1.27-4.38-2.35-8.56-7.5-10.25l-5.27,4.45,6.59,13.32C352.05,194.89,351.18,189.89,353.53,187.86Z" transform="translate(-0.25 -0.25)"/><path class="cls-1" d="M417.59,198.33,412.44,200,409,194.1c1.75-.39,3.53-1.35,4.26-.83C414.85,194.41,415.93,196.3,417.59,198.33Z" transform="translate(-0.25 -0.25)"/><path class="cls-2" d="M406,196c4,4.87,3.38,7.9-1.65,10.49-2.88,1.49-5.68,3.12-9.06,5-.65-2-1.21-3.82-1.82-5.74Z" transform="translate(-0.25 -0.25)"/><path class="cls-1" d="M394.07,173.33c4.42-1.93,5-1.66,6,2.64l-3.59,2.12Z" transform="translate(-0.25 -0.25)"/><path d="M395.88,198.42s0,.07,0,.11h-.07Z" transform="translate(-0.25 -0.25)"/><path d="M395.73,198.52h-.31Z" transform="translate(-0.25 -0.25)"/><path class="cls-2" d="M390.5,177.09c.73,3.3,7.05,5,3.86,8.25-2.86,2.88-2.37,9.19-8.32,9.17l-2.91-4.15Z" transform="translate(-0.25 -0.25)"/><path class="cls-2" d="M386.28,204.74c2,3.07,2.91,6.82,4.43,10.55-4.38,2.52-8.74,4.2-12,7.11-6.08,5.36-11.3,4.53-16.9-.46-4-3.55-8.52-6.49-12.34-10.19-3.05-3-2.39-4.45.22-7.79,1.8-2.3,2.66-5.32,4.05-8,2.6-4.94,5.28-9.84,7.81-14.53,5.63,0,9.16,1.49,11.72,5C377.61,192.56,382.23,198.47,386.28,204.74Zm.05,5.43c.05-3.12-2.05-4.33-4.94-4.39s-4.25,1.16-4.27,4c0,3.61,1.52,5.21,4.84,5.26S386.28,212.82,386.33,210.17Zm-7.74-5.4c.31-3.29,1.15-7.09-3-8.22-1.81-.49-5,.57-6.06,2-.92,1.28-.46,4.91.75,6C372.34,206.57,375.46,208,378.59,204.77Zm-13.46-6.24c3.18-3.13,2.77-6.44,1-8.77-.94-1.25-4.13-.81-7-1.24-.47,3.43-.77,5.7-1.16,8.52Z" transform="translate(-0.25 -0.25)"/><path d="M381.39,205.78c2.89.06,5,1.27,4.94,4.39-.05,2.65-.94,5-4.37,4.9s-4.85-1.65-4.84-5.26C377.14,206.94,378.63,205.71,381.39,205.78Zm1.05,4.42c0-.19,0-.38,0-.57l-1.2-.23-.09.88Z" transform="translate(-0.25 -0.25)"/><path d="M385.7,159.11l-2.13,2.11-5.81-4,.07-3a5.28,5.28,0,0,1,2.85.8A60.46,60.46,0,0,1,385.7,159.11Z" transform="translate(-0.25 -0.25)"/><path class="cls-3" d="M382.48,209.63c0,.19,0,.38,0,.57l-1.25.08.09-.88Z" transform="translate(-0.25 -0.25)"/><path class="cls-1" d="M383.57,161.22c-4.28,3-5.11,2.8-9.21-1.64l3.4-2.34Z" transform="translate(-0.25 -0.25)"/><path d="M375.56,196.55c4.18,1.13,3.34,4.93,3,8.22-3.13,3.24-6.25,1.8-8.34-.16-1.21-1.13-1.67-4.76-.75-6C370.54,197.12,373.75,196.06,375.56,196.55Zm-.59,3.5-.55-.71-.63.74.41.38Z" transform="translate(-0.25 -0.25)"/><path class="cls-3" d="M374.42,199.34l.55.71-.77.41-.41-.38Z" transform="translate(-0.25 -0.25)"/><path class="cls-2" d="M376.74,166.18c-1.43,4.6-2.83,9.1-4.25,13.69l-6.62-2.6c2-4.9,1.5-11,6.9-14.86Z" transform="translate(-0.25 -0.25)"/><path d="M366.15,189.76c1.75,2.33,2.16,5.64-1,8.77L358,197c.39-2.82.69-5.09,1.16-8.52C362,189,365.21,188.51,366.15,189.76ZM363.62,195l.36-2.58-1,0v2.57Z" transform="translate(-0.25 -0.25)"/><path class="cls-3" d="M364,192.39l-.36,2.58-.61,0v-2.57Z" transform="translate(-0.25 -0.25)"/><path class="cls-2" d="M346,177.61c5.15,1.69,6.23,5.87,7.5,10.25-2.35,2-1.48,7-6.18,7.52l-6.59-13.32Z" transform="translate(-0.25 -0.25)"/><path class="cls-1" d="M343.16,167.05c.63,2,1,3.13,1.68,5.29l-7,5.47v-6.19Z" transform="translate(-0.25 -0.25)"/><path d="M342.94,165.07l.22,2-5.31,4.57-2.32-.31c.05-.37.1-.74.14-1.11C336,167.55,339.53,165.51,342.94,165.07Z" transform="translate(-0.25 -0.25)"/><path d="M311.82,277.84A178.33,178.33,0,0,1,304.94,326c-4,14.45-5,29.08-4.55,43.94.18,5.8,0,11.61,0,17.42l-1.77.07v-45l-21.24-13.86q-1.91,15.88-3.82,31.74h-.47c0-4.3-.24-8.62.05-12.89.47-6.65,1.53-13.25,1.93-19.9.62-10.59.87-21.21,1.35-31.81.38-8.45.74-16.91,1.36-25.35.47-6.27,1.19-12.54,2.06-18.78,1.11-8,2.49-15.89,3.73-23.84a15.38,15.38,0,0,0,0-2.2,188,188,0,0,0-46.39-3.46c0,4.3.08,8.41,0,12.53-.13,6.07-.2,12.15-.65,18.2-.26,3.56-3.21,5.08-6.28,5.52a102.92,102.92,0,0,1-12.42.81c-16.39.3-32.77.46-49.16.77l0-.86c3.79,0,7.58-.54,11.38-.62,14.91-.31,29.84-.49,44.76-.8,6.65-.14,10.14-2.27,10.2-6.54.15-11.48.05-23,.05-34.8l-11.73-.54,0-1.46h.15c19.31-.33,38.39,2.19,57.4,5.28,4.71.77,7.53,3.89,10.19,7.26q8.91,11.3,17.59,22.76c2.24,2.95,2.92,6.19,2.66,10.1C310.92,265.7,311.8,271.78,311.82,277.84Zm-11.31,56.53c8.26-26,10.52-51.74,8.65-77.58l-4.57-.43c-.79-3,0-4.24,2.47-4.12l.07.09.18.06-.09-.14h-.16l-14.27-18.92-6.46-8.57c-.31,2.36-.5,3.86-.71,5.35-.38,2.74-.79,5.48-1.2,8.22-.8,5.35-1.59,10.7-2.14,16.08-1.07,10.41-1.86,20.86-2.48,31.31-.63,10.73-1.16,21.48-1.19,32.22,0,3.23-.55,7.25,3.06,9.62L294,335.67l5,3.27C299.52,337.42,300,335.89,300.51,334.37Zm6.83-79.67-.92-1-1.11,1.11,1.07.83Z" transform="translate(-0.25 -0.25)"/><path class="cls-2" d="M309.16,256.79c1.87,25.84-.39,51.55-8.65,77.58l-1.6-.5c.12-.43.24-.86.37-1.3l-3-1.41h0a4.72,4.72,0,0,0,.27-.61.46.46,0,0,0-.11-.33c-3.16.29-1.89,2.29-1.72,4.46l-.66,1-12.37-8.12c-3.61-2.37-3.07-6.39-3.06-9.62,0-10.74.56-21.49,1.19-32.22.62-10.45,1.41-20.9,2.48-31.31.55-5.38,1.34-10.73,2.14-16.08l2.5.37c-.14.78,1,2.71,1.41,2.69,1.35,0,2.66-.87,4.22-1.48-.74-1.66-1.17-2.63-2.14-4.79l2.38-1.79,14.27,18.92c-2.5-.12-3.26,1.14-2.47,4.12Zm-4.11,22.5c0-1.89,0-3.79,0-5.68a9.63,9.63,0,0,0-6.3-9c-5.94-2.44-9.32-.88-9.78,4.42-.79,9-1.6,18-2,27.07-.05,1.42,1.92,3.45,3.46,4.29,3.65,2,8.48.2,10.83-3.25C305,291.66,305,285.46,305.05,279.29Zm-19.59,45.44c1-4,.2-4.78-4.15-4.32C280.26,324.8,281.4,325.9,285.46,324.73Z" transform="translate(-0.25 -0.25)"/><path class="cls-4" d="M306.42,253.73l.92,1-1,1-1.07-.83Z" transform="translate(-0.25 -0.25)"/><path d="M307.22,252.25l.09.14-.18-.06-.07-.09Z" transform="translate(-0.25 -0.25)"/><path d="M305,273.61c0,1.89,0,3.79,0,5.68-.1,6.17-.05,12.37-3.76,17.82-2.35,3.45-7.18,5.24-10.83,3.25-1.54-.84-3.51-2.87-3.46-4.29.36-9,1.17-18.06,2-27.07.46-5.3,3.84-6.86,9.78-4.42A9.63,9.63,0,0,1,305,273.61Z" transform="translate(-0.25 -0.25)"/><path class="cls-2" d="M298.91,333.87l1.6.5c-.48,1.52-1,3.05-1.51,4.57l-5-3.27.66-1Z" transform="translate(-0.25 -0.25)"/><path d="M299.28,332.57c-.13.44-.25.87-.37,1.3l-4.21.8c-.17-2.17-1.44-4.17,1.72-4.46a.46.46,0,0,1,.11.33,4.72,4.72,0,0,1-.27.61h0l-.06,0,.06.11c0,.79,0,1.56,0,2.34l1.14-.31-1.15-2v-.08Z" transform="translate(-0.25 -0.25)"/><path class="cls-4" d="M296.26,331.24l1.15,2-1.14.31C296.27,332.8,296.27,332,296.26,331.24Z" transform="translate(-0.25 -0.25)"/><path d="M296.26,331.16v.08l-.06-.11Z" transform="translate(-0.25 -0.25)"/><path d="M293,114.56c.51,11.22-2.18,22-4.19,32.87a17.22,17.22,0,0,0-.47,1.81c-.53,9.19-4.46,11.32-13.65,9.78-1.79,8.83-3.46,17.67-5.4,26.44-1.24,5.61-7.2,10.26-12.82,10.57q-20.55,1.14-41.09,2.36a9.72,9.72,0,0,0-1.45.36,14.27,14.27,0,0,1,.07,3l-2.19-.18a5.86,5.86,0,0,0-.72-2.93L176.27,200l-.19-2.31c1.93-.15,3.86-.32,5.79-.45,14-.92,28-1.77,41.95-2.74,9.55-.66,19.09-1.46,28.63-2.22,6.78-.54,11.7-4.39,13.2-10.58,2.39-9.86,3.64-20,5.11-30.07,1.5-10.22,2.72-20.48,4-30.73,1.79-14.13,4.21-28.22,5.14-42.4,1-15.57-5.51-23.43-19.85-23.72-20.07-.39-40.19.58-60.27,1.5-18,.82-36,2.11-54,3.67-10.72.94-21.54,1.75-31.71,6-4.19,1.73-7,4.68-7.75,9.06a39.88,39.88,0,0,0-.2,10.58c1,8.6,2.36,17.14,3.5,25.72,1.82,13.67,3.55,27.37,5.36,41.05.7,5.26,1.4,10.52,2.29,15.75,1.48,8.63,2.7,17.44,8.29,24.6,1.81,2.32,4.46,4.71,7.17,5.45,4.18,1.14,8.74.9,13.13,1.24l0,2.18h-.64c-5.45,0-11.23-.06-16.28-1.79-8.24-2.8-10.73-10.54-12.48-18.3-1.3-5.72-2.53-11.46-3.75-17L102.6,163c-1.62-5.18-4.14-10.52-4.85-16.09a256.76,256.76,0,0,1-1.65-28.3c-.11-6.94,2.57-9.55,9.47-10.52-1-7.52-2.39-15-3-22.57a52.53,52.53,0,0,1,.58-14.61c.88-4.39,4.56-7.52,8.75-8.79,8-2.4,16.1-4.81,24.33-6,11.7-1.64,23.55-2.14,35.67-3.16,1-7.79,6.06-11.52,12.5-13.69,2.42-.82,3.28-2.13,3.64-4.51.1-.65.2-1.3.31-1.94l2.07.08,10.15-.83,2-.36q.47,2.58,1,5.23c8,1.85,16.42,3.31,18.35,13.84,3.6-.2,7.24-.57,10.88-.56,6.82,0,13.63.39,20.45.36,7.24,0,14.36.29,20.83,4,6.19,3.58,10.11,8.64,11.36,15.94,1.74,10.19-.45,20-2.19,29.88-.12.72-.09,1.48-.14,2.2C291,104.08,292.6,106.32,293,114.56Zm-6.64,26.57c1.48-11.26,4.39-22,1.6-33.3l-5.78-.39c-1.69,11.49-3.36,22.8-5.13,34.78Zm-.73,2h-8.78c-.42,2-.85,4-1.36,6.42h8.43Zm-2.17,8H275c-.17,2-.29,3.4-.44,5.06C280.64,156.78,282.05,155.94,283.44,151.13Zm-66-100.72c.12-5.89-7-10.67-23.88-9.71-7.85.45-16.5,6.49-16.73,11.7L213.4,51l-5.89-7c4.46-.55,6.07.82,7.57,6.73ZM201.15,36.69c-.2-.91-.39-1.8-.66-3-3.87,1.35-8.91-2.1-11.35,4.35ZM112.43,161.35c-.27-1.88-.54-3.74-.75-5.26h-7.19C106.35,162.15,108.17,163.37,112.43,161.35Zm-8.69-7.09h7.72c-.18-2.14-.3-3.62-.42-5l-8.73-1.2Zm7.58-6.26c-1.73-11.73-3.36-22.78-5.09-34.45-2.43-.12-4.76-.22-5.49,2.59a24.41,24.41,0,0,0-.85,7c.31,7.37.87,14.73,1.38,22.78Z" transform="translate(-0.25 -0.25)"/><path class="cls-2" d="M292.79,233.32l-2.38,1.79c-1.58,1.49-3,2.28-3.46,3.46a.35.35,0,0,0,0,.12l-2.5-.37c.41-2.74.82-5.48,1.2-8.22.21-1.49.4-3,.71-5.35Z" transform="translate(-0.25 -0.25)"/><path d="M290.41,235.11c1,2.16,1.4,3.13,2.14,4.79-1.56.61-2.87,1.43-4.22,1.48-.45,0-1.55-1.91-1.41-2.69a.35.35,0,0,1,0-.12C287.44,237.39,288.83,236.6,290.41,235.11Zm-1,5.19,1.33-2.61-1.3-.67-1.32,2.57Z" transform="translate(-0.25 -0.25)"/><path class="cls-4" d="M290.77,237.69l-1.33,2.61-1.29-.71,1.32-2.57Z" transform="translate(-0.25 -0.25)"/><path class="cls-5" d="M287.94,107.83c2.79,11.32-.12,22-1.6,33.3L277,142.22c1.77-12,3.44-23.29,5.13-34.78Z" transform="translate(-0.25 -0.25)"/><path d="M281.31,320.41c4.35-.46,5.1.37,4.15,4.32C281.4,325.9,280.26,324.8,281.31,320.41Zm3.24,2.91c-.28-.76-.55-1.53-.82-2.29l-1.51.47c.24.79.47,1.58.71,2.36Z" transform="translate(-0.25 -0.25)"/><path class="cls-6" d="M276.83,143.11h8.78l-1.71,6.42h-8.43C276,147.15,276.41,145.11,276.83,143.11Z" transform="translate(-0.25 -0.25)"/><path class="cls-4" d="M283.73,321c.27.76.54,1.53.82,2.29l-1.62.54c-.24-.78-.47-1.57-.71-2.36Z" transform="translate(-0.25 -0.25)"/><path class="cls-5" d="M279.29,151.13h4.15c-1.39,4.81-2.8,5.65-8.89,5.06.15-1.66.27-3.1.44-5.06Z" transform="translate(-0.25 -0.25)"/><path class="cls-1" d="M260.07,54.75c14.34.29,20.87,8.15,19.85,23.72-.93,14.18-3.35,28.27-5.14,42.4-1.3,10.25-2.52,20.51-4,30.73-1.47,10.06-2.72,20.21-5.11,30.07-1.5,6.19-6.42,10-13.2,10.58-9.54.76-19.08,1.56-28.63,2.22-14,1-28,1.82-41.95,2.74-1.93.13-3.86.3-5.79.45-2.86.24-5.71.46-8.58.53-7.18.16-14.37,0-21.55,0l0,1.09c-4.39-.34-8.95-.1-13.13-1.24-2.71-.74-5.36-3.13-7.17-5.45-5.59-7.16-6.81-16-8.29-24.6-.89-5.23-1.59-10.49-2.29-15.75-1.81-13.68-3.54-27.38-5.36-41-1.14-8.58-2.53-17.12-3.5-25.72a39.88,39.88,0,0,1,.2-10.58c.71-4.38,3.56-7.33,7.75-9.06,10.17-4.2,21-5,31.71-6,18-1.56,35.95-2.85,54-3.67C219.88,55.33,240,54.36,260.07,54.75Zm7.82,30a9.06,9.06,0,0,0,.7-7.33c-.67-1.59-4-3.26-5.78-3-3.86.66-7.5,2.58-11.87,4.22-11.11-8.42-24.26-6.49-32.09.83a25.29,25.29,0,0,0-4.21,32.28A26,26,0,0,0,245,123.13a23.39,23.39,0,0,0,12.5-9.85,24.81,24.81,0,0,0,2.85-21.61C263.25,89.13,266.23,87.36,267.89,84.75ZM260.17,69.3c0-2.75.41-5-.13-7-.41-1.5-1.84-3.46-3.19-3.82a29.93,29.93,0,0,0-9.34-.87c-8.51.54-17,1.33-25.49,2.21-7,.72-8.17,2.73-5.93,9.36a31.79,31.79,0,0,0,1.57,3.32,17.9,17.9,0,0,0,2.51.2c11.81-.75,23.62-1.49,35.42-2.32A28.56,28.56,0,0,0,260.17,69.3ZM249.5,145.36c.05-4.13-1.74-5.75-5.82-5.63s-8.31.51-12.47.58c-19,.35-37.91.59-56.87.94q-11.72.23-23.43.76c-4.54.21-6.58,2.11-6.16,6.7.79,8.59,1.83,17.19,3.38,25.67,1.27,6.94,3,8.05,10.11,7.91,21.23-.42,42.47-.95,63.7-1.44,0-.22,0-.44,0-.66,7.21,0,14.41,0,21.61,0,2.86,0,5.1-1.22,5.22-4.27Q249.33,160.64,249.5,145.36Zm-69.91-29.6c6-10.15,5.11-21.86-4.54-31.7a26.57,26.57,0,0,0-20.25-7.84l-.11-1.64Q164,74,173.38,73.3a32.52,32.52,0,0,0,4.52-1c.09-1.6.18-2.6.2-3.6.09-6.59.09-7.26-6.38-7.4-8.9-.18-17.84.72-26.75,1.3-4.73.31-9.58.41-13.85,3.69-.1,1.22-.17,2.22-.27,3.22-.35,3.58.36,5.4,2.66,6l-.44,1.58c-.71-.2-1.41-.38-2.11-.53a5.17,5.17,0,0,0-6.46,3.87c-.82,2.92-1.12,5.93,2,8.07,2.25,1.53,4.32,3.31,6.76,5.21a27,27,0,0,0,2.35,19.66,26,26,0,0,0,15.85,13.11A24.31,24.31,0,0,0,179.59,115.76Zm-52.82,70.61c.69,3.75,7.64,9.19,12.72,9.74Zm-8.09-44.88c.58,13.63.08,27.54,5.38,40C122.32,168.51,120.5,155,118.68,141.49Z" transform="translate(-0.25 -0.25)"/><path d="M268.59,77.42a9.06,9.06,0,0,1-.7,7.33c-1.66,2.61-4.64,4.38-7.52,6.92a24.81,24.81,0,0,1-2.85,21.61,23.39,23.39,0,0,1-12.5,9.85,26,26,0,0,1-30.38-11.33,25.29,25.29,0,0,1,4.21-32.28c7.83-7.32,21-9.25,32.09-.83,4.37-1.64,8-3.56,11.87-4.22C264.61,74.16,267.92,75.83,268.59,77.42Zm-2.12,5.83a5.71,5.71,0,0,0,.2-5.38,5.89,5.89,0,0,0-5.18-1.79c-2.94.8-5.58,2.66-8.53,4.18l6.79,9C262,87.31,264.69,85.62,266.47,83.25Zm-30,38.82c12,.33,22.08-10.12,22.13-22.18-.26-14.89-10.32-24.8-23.5-24.69-14.57.11-22.47,9.88-22.58,22.67C212.44,111.88,223.34,121.7,236.51,122.07Z" transform="translate(-0.25 -0.25)"/><path class="cls-6" d="M266.67,77.87a5.71,5.71,0,0,1-.2,5.38c-1.78,2.37-4.45,4.06-6.72,6l-6.79-9c2.95-1.52,5.59-3.38,8.53-4.18A5.89,5.89,0,0,1,266.67,77.87Zm-4.89,6.82c.69.1,2.36-2,2.35-3.15a1.53,1.53,0,0,0-.17-.64c-.45-1-1.7-2.19-2.46-2.18a8,8,0,0,0-3.43,1.22c-.45.23-.9.47-1.35.66l0,1.78C258.37,83.22,260,84.45,261.78,84.69Z" transform="translate(-0.25 -0.25)"/><path d="M264.13,81.54c0,1.11-1.66,3.25-2.35,3.15-1.77-.24-3.41-1.47-5.09-2.31l0-1.78c.45-.19.9-.43,1.35-.66l0,.08c2.06,4.1,2.82,4.19,5.64.91l.21,0A1.53,1.53,0,0,1,264.13,81.54Z" transform="translate(-0.25 -0.25)"/><path d="M264,80.9l-.21,0L258.11,80l0-.08a8,8,0,0,1,3.43-1.22C262.26,78.71,263.51,79.91,264,80.9Z" transform="translate(-0.25 -0.25)"/><path class="cls-7" d="M263.75,80.93c-2.82,3.28-3.58,3.19-5.64-.91Z" transform="translate(-0.25 -0.25)"/><path d="M260,62.3c.54,2,.13,4.25.13,7a28.56,28.56,0,0,1-4.58,1.08c-11.8.83-23.61,1.57-35.42,2.32a17.9,17.9,0,0,1-2.51-.2,31.79,31.79,0,0,1-1.57-3.32c-2.24-6.63-1.05-8.64,5.93-9.36,8.48-.88,17-1.67,25.49-2.21a29.93,29.93,0,0,1,9.34.87C258.2,58.84,259.63,60.8,260,62.3Zm-5.93,5.75c2.51-.19,3.87-1.61,3.83-4.23s-1.7-3.33-4-3.31c-5.66,0-11.33-.24-17,0-4.6.22-9.15,1.28-13.74,1.55-5.18.31-5.71.81-4.43,6.88a23.4,23.4,0,0,0,4,.45c8.18-.36,16.35-.83,24.53-1.22C249.57,68.1,251.85,68.23,254.11,68.05Z" transform="translate(-0.25 -0.25)"/><path class="cls-6" d="M257.94,63.82c0,2.62-1.32,4-3.83,4.23-2.26.18-4.54,0-6.81.16-8.18.39-16.35.86-24.53,1.22a23.4,23.4,0,0,1-4-.45c-1.28-6.07-.75-6.57,4.43-6.88,4.59-.27,9.14-1.33,13.74-1.55,5.65-.28,11.32,0,17,0C256.24,60.49,257.9,61.09,257.94,63.82Z" transform="translate(-0.25 -0.25)"/><path d="M255.74,327.29l0,1.33L139,330.92l0-1.28Z" transform="translate(-0.25 -0.25)"/><path d="M236.22,79.56c9.65-.12,18.78,9.13,18.67,18.39-.12,10.32-8.35,18.88-18.51,18.94a18.67,18.67,0,1,1-.16-37.33Zm11,22.51c1.46-1.58,2.26-3.77,2.89-4.86-.08-6-3.63-10.95-7.92-11.24a7.16,7.16,0,0,0-5.42,2.25c-.79,1-.1,3.62.55,5.27,1,2.42,2.6,4.57,3.7,6.94C242.37,103.28,245.19,104.27,247.24,102.07ZM232.4,112.86c3.78,0,6.54-3.06,6.54-7.24s-3.09-7.76-7-7.81a7.16,7.16,0,0,0-6.91,7C225,109.09,228.46,112.86,232.4,112.86Z" transform="translate(-0.25 -0.25)"/><path d="M243.68,139.73c4.08-.12,5.87,1.5,5.82,5.63q-.18,15.28-.74,30.55c-.12,3.05-2.36,4.26-5.22,4.27-7.2,0-14.4,0-21.61,0,0,.22,0,.44,0,.66-21.23.49-42.47,1-63.7,1.44-7.09.14-8.84-1-10.11-7.91-1.55-8.48-2.59-17.08-3.38-25.67-.42-4.59,1.62-6.49,6.16-6.7q11.72-.52,23.43-.76c19-.35,37.92-.59,56.87-.94C235.37,140.24,239.52,139.84,243.68,139.73Zm.44,35.68c1.27-10.44,1.5-20,0-29.62-.4-2.56-2.38-3.76-4.93-3.77-4.53,0-9.07-.09-13.6,0-13.38.42-26.75,1.06-40.13,1.37-12,.28-23.94.24-35.41.33-4.26,7.69-1.64,28.32,3.27,34,8.61,0,16.69.09,24.77,0q28.07-.36,56.14-.93C237.51,176.73,240.78,175.9,244.12,175.41Z" transform="translate(-0.25 -0.25)"/><path class="cls-6" d="M244.12,145.79c1.5,9.58,1.27,19.18,0,29.62-3.34.49-6.61,1.32-9.89,1.4q-28.06.62-56.14.93c-8.08.1-16.16,0-24.77,0-4.91-5.66-7.53-26.29-3.27-34,11.47-.09,23.44-.05,35.41-.33,13.38-.31,26.75-.95,40.13-1.37,4.53-.14,9.07-.08,13.6,0C241.74,142,243.72,143.23,244.12,145.79Zm-6.85,20.43c.63-4.94.8-9.95,1.18-15.24-1.93-.56-3.34-1.34-4.74-1.31-8.32.14-16.64.54-25,.72-15.85.34-31.71.56-47.56.91a60.52,60.52,0,0,0-6.44.78c-.53,7.73-.6,14.66,3,21.17,1.5,0,2.76.05,4,0,9.2-.51,18.4-1.14,27.6-1.53q21.58-.9,43.17-1.53C235.32,170.1,237,168.61,237.27,166.22Z" transform="translate(-0.25 -0.25)"/><path class="cls-2" d="M258.64,99.89c-.05,12.06-10.17,22.51-22.13,22.18-13.17-.37-24.07-10.19-23.95-24.2.11-12.79,8-22.56,22.58-22.67C248.32,75.09,258.38,85,258.64,99.89ZM254.89,98c.11-9.26-9-18.51-18.67-18.39a18.67,18.67,0,1,0,.16,37.33C246.54,116.83,254.77,108.27,254.89,98Z" transform="translate(-0.25 -0.25)"/><path d="M238.45,151c-.38,5.29-.55,10.3-1.18,15.24-.3,2.39-2,3.88-4.74,4q-21.59.66-43.17,1.53c-9.2.39-18.4,1-27.6,1.53-1.25.06-2.51,0-4,0-3.6-6.51-3.53-13.44-3-21.17a60.52,60.52,0,0,1,6.44-.78c15.85-.35,31.71-.57,47.56-.91,8.32-.18,16.64-.58,25-.72C235.11,149.64,236.52,150.42,238.45,151Zm-4.37,15.87v-5.66l-2.65.87c-.12,1.54-.23,2.89-.38,4.79Zm.23-7.83c-.09-1.64-.17-3-.27-4.83l-2.5.14v6.09Zm-3.74-4.66H224.2l1.43,3.85-1.33,1.86h5.28C229.91,158.15,230.22,156.37,230.57,154.36Zm-1,12.55v-5.3l-4.87,1.11v4.19ZM223.49,157v-2.61h-6.4V157Zm0,3c-.12-.42-.24-.84-.35-1.26-1.48,0-3,0-4.44,0a10.67,10.67,0,0,0-1.72.34c-.06.4-.13.8-.2,1.2a14,14,0,0,0,3.37.64A14.61,14.61,0,0,0,223.46,160Zm-.75,6.92v-4.61l-5.65,1.06v3.55Zm-7.49.67v-4.45l-2.42.28-.19-1.77a3,3,0,0,0,2.89-2.5,29.28,29.28,0,0,0-3.8-.4V157h3.45v-2.55h-5.63v2.44h-2v-2.33h-7.25a5.17,5.17,0,0,0,.66,2l-1.76.28a4.5,4.5,0,0,0-6.61-1.67c.08.69.16,1.49.27,2.56l-1,.11L190.65,155h-7v3.29l-1.79.08c0-1.21-.09-2.2-.14-3.13h-7.2v3.29h-1.63c-.14-1.35-.26-2.4-.38-3.47h-6.25v3.25H165c-.12-1.24-.21-2.18-.31-3.13-2.22-.4-3,.25-3.17,1.43l-1.09-.23c.11-.54.23-1.11.35-1.71-3.64,2.05-3.79,10-.13,14.32q-.18-3.81-.35-7.62l1.11-.05,1,7.75,2.6-.12v-7h.81c.4,2.52.76,4.78,1.13,7.13h6.74c-.33-2.59-.63-4.92-.91-7.13l1.33-.21c.24,1.53.45,2.92.66,4.27.15,1,.3,2,.46,3l7.06-.46,1.26-.1h8v-3.5h1.87v3.74l5.87-.62c-.07-1.21-.12-2.2-.16-3.12l1.47-.5c.59,1.45,1,2.42,1.4,3.41,1.47,0,2.71,0,3.95,0,.48,0,1-.11,1.58-.18a13.46,13.46,0,0,0,.18-1.5c0-.59-.07-1.18-.11-1.72l1.6-.16c.14,1.46.22,2.44.33,3.62Z" transform="translate(-0.25 -0.25)"/><path class="cls-6" d="M235.08,216.28c0,11.84.1,23.32-.05,34.8-.06,4.27-3.55,6.4-10.2,6.54-14.92.31-29.85.49-44.76.8-3.8.08-7.59.62-11.38.62l-1.07,0a15.77,15.77,0,0,1-6.33-2,4.15,4.15,0,0,1-2-3c-.14-11.8-.09-23.6-.09-35.79l10-.92c.77,9,1.52,17.79,2.26,26.54l1.27-.09c-.68-8.58-1.37-17.16-2.1-26.43l6-.9c.16,3.5.36,6.56.44,9.62.13,5.18,3.74,7.87,7.77,9.27,8.42,2.93,17,2.49,24.86-1.9,2.25-1.26,4-4.54,4.64-7.21.8-3.17.19-6.68.19-10.22h7.61v25.57l1.17,0V215.74Zm-3.87,8.43c.39-.9-1.1-2.61-1.75-4l-1.68,0c-.67,1.58-1.35,3.17-2,4.76l1.56,1.41C228.69,226.24,230.73,225.82,231.21,224.71Zm-2.1,14.65,2.13-3.73-1.93-1.33a12.8,12.8,0,0,0-2.43,2.93C226.74,237.56,228.32,238.63,229.11,239.36Zm1.64,13.09-.78-4.11-2,.07c-.19,1.39-.38,2.78-.58,4.18Zm-11.52-6c0-.13,0-.25,0-.38h-42c0,.13,0,.25,0,.38Zm-9.7,8.71c.34,0,1.28-1.48,1.1-2-.34-.94-1.31-2.33-2-2.3-1.15,0-2.27,1-3.4,1.6l.15,1.64A23.32,23.32,0,0,0,209.53,255.12Zm-18.87,0c-.69-1.66-.87-2.92-1.6-3.56a2.61,2.61,0,0,0-2.55.37c-.6.79-.56,2.07-.87,3.5Zm-24-.05,1.1-1.09c-.48-1-.73-2.45-1.51-2.85s-2.07.32-3.14.54c-.1.43-.21.87-.31,1.3ZM164,240c2.72.28,2.91-1.66,2.55-4.09-2.08-1-3.87-1-4.31,1.53A3.18,3.18,0,0,0,164,240Zm2.35-13.91c.41-.34.25-2.22-.26-2.64-.79-.65-2.72-1.2-3.09-.8-1,1.08-1.45,2.69-2.11,4.09l1.4,1.45A20.22,20.22,0,0,0,166.38,226.08Z" transform="translate(-0.25 -0.25)"/><path d="M229.46,220.75c.65,1.35,2.14,3.06,1.75,4-.48,1.11-2.52,1.53-3.89,2.25l-1.56-1.41c.67-1.59,1.35-3.18,2-4.76Zm.46,4,.51-1.19L228,222.51c-.19.46-.39.93-.59,1.39Z" transform="translate(-0.25 -0.25)"/><path d="M231.24,235.63l-2.13,3.73c-.79-.73-2.37-1.8-2.23-2.13a12.8,12.8,0,0,1,2.43-2.93Zm-1.54,1.83-.95-1.46-.54.32c.27.51.53,1,.79,1.54Z" transform="translate(-0.25 -0.25)"/><path d="M230,248.34l.78,4.11-3.4.14c.2-1.4.39-2.79.58-4.18Zm-1.06,3.47c.29-.44.58-.87.86-1.31l-.39-.31-1.11,1Z" transform="translate(-0.25 -0.25)"/><path class="cls-4" d="M229.77,250.5c-.28.44-.57.87-.86,1.31l-.64-.61,1.11-1Z" transform="translate(-0.25 -0.25)"/><path class="cls-4" d="M228.75,236l.95,1.46-.7.4c-.26-.52-.52-1-.79-1.54Z" transform="translate(-0.25 -0.25)"/><path d="M223.35,215.74v25.79l-1.17,0V215.94h-7.61c0,3.54.61,7.05-.19,10.22-.67,2.67-2.39,6-4.64,7.21-7.82,4.39-16.44,4.83-24.86,1.9-4-1.4-7.64-4.09-7.77-9.27-.08-3.06-.28-6.12-.44-9.62l0-1.12c15.55-.58,31.13-.71,46.7-1Z" transform="translate(-0.25 -0.25)"/><path d="M219.22,246c0,.13,0,.25,0,.38h-42c0-.13,0-.25,0-.38Z" transform="translate(-0.25 -0.25)"/><path class="cls-5" d="M193.6,40.7c16.86-1,24,3.82,23.88,9.71l-2.4.28c-1.5-5.91-3.11-7.28-7.57-6.73l5.89,7L176.87,52.4C177.1,47.19,185.75,41.15,193.6,40.7Z" transform="translate(-0.25 -0.25)"/><path d="M211.79,201.55l2.19.18a6.18,6.18,0,0,1-5.13,6,90.38,90.38,0,0,1-28.54,1.72c-4.91-.41-7.2-3.55-7.9-9.15-8.79.42-17.62,1.12-26.46,1.18l0-2.18,0-1.09c7.18,0,14.37.12,21.55,0,2.87-.07,5.72-.29,8.58-.53l.19,2.31c.52,2.12.93,3.85,1.5,6.19,4.58,0,8.5.22,12.38,0,6.1-.41,12.24-.86,18.26-1.86C210.6,203.88,211.66,203,211.79,201.55Z" transform="translate(-0.25 -0.25)"/><path d="M212.61,161.66l.19,1.77-3.64.42c0,.15,0,.29,0,.43l-1.6.16h-7l-1.47.5h-7.58v-.14l-8,1v2.59l-1.26.1c-.21-1.07-.36-1.81-.61-3l-5.75.61a1.69,1.69,0,0,1,0-.33c.48-3.41,6.49.24,5.69-4.83l-7.58.47c0,.09,0,.18,0,.27l-1.33.21H165v-.23l-3.59-.39-1.11.05c0-.32,0-.65-.05-1l-.68.14.86-4.16,1.09.23a14.92,14.92,0,0,0,0,2.93l3.49-1.23h1.19v.22h15.61a.86.86,0,0,0,0-.16l1.79-.08,8.23-.48,1-.11c0,.14,0,.29.05.44l6.42-1c0-.11-.08-.22-.13-.33l1.76-.28c.74,1,2.28.94,6.59.36h2V157h2.18v1.8c-2,0-2.15.78-1.88,3C210.72,161.63,211.7,161.75,212.61,161.66ZM207.9,161c-.1-.42-.21-.84-.31-1.27h-6.73c.17,1,.3,1.82.46,2.81Zm-8.61,1.76c-.07-1.34-.11-2.14-.16-3.15l-6.34,1c0,.43-.1.85-.16,1.27Zm-6.91-2.24c-3.84-.32-6.66-.31-8.75,2.17C186.49,162.7,189.91,164.7,192.38,160.53Z" transform="translate(-0.25 -0.25)"/><path class="cls-8" d="M211.07,198.62a5.86,5.86,0,0,1,.72,2.93c-.13,1.4-1.19,2.33-3.38,2.7-6,1-12.16,1.45-18.26,1.86-3.88.27-7.8,0-12.38,0-.57-2.34-1-4.07-1.5-6.19Z" transform="translate(-0.25 -0.25)"/><path d="M210.63,253.15c.18.49-.76,2-1.1,2a23.32,23.32,0,0,1-4.13-1l-.15-1.64c1.13-.59,2.25-1.56,3.4-1.6C209.32,250.82,210.29,252.21,210.63,253.15Zm-1.42.21-.09-.77h-2c0,.36,0,.71.07,1.07Z" transform="translate(-0.25 -0.25)"/><path class="cls-4" d="M209.12,252.59l.09.77-2,.3c0-.36-.05-.71-.07-1.07Z" transform="translate(-0.25 -0.25)"/><path d="M205.1,3.6c4,5.22,2.32,12-4.61,16.89l0,.17-2.17.4,0-.25-5.22-.5-.63,2.76h5.66V25H192V27.6h4.27v1.74c-1.64,0-3.36.47-4.79-.15L190.4,33l-2.07-.08c.75-4.54,1.69-9.05,2.53-13.58-5.73-6.48-5.93-12.56-.55-17.06C194.12-.94,202.21-.2,205.1,3.6Zm-4.17,11.88c2.52-2.15,3.9-4.83,1.53-8V7.29L200.17,5,200,5c-.33-.48-.57-1.2-1-1.36a6.79,6.79,0,0,0-6.34,11.74C195.39,17.62,198.33,17.7,200.93,15.48Z" transform="translate(-0.25 -0.25)"/><path class="cls-9" d="M202.46,7.45c2.37,3.2,1,5.88-1.53,8s-5.54,2.14-8.25-.06A6.79,6.79,0,0,1,199,3.68c.44.16.68.88,1,1.36l-2.42.77c.35,3.25.63,5.8.9,8.33C202.07,13.82,202.37,13.36,202.46,7.45Z" transform="translate(-0.25 -0.25)"/><path d="M202.54,31.77l-2,.36a4.27,4.27,0,0,0-4.27-2.79V27.6h3.17l2.26-.41C202,28.69,202.26,30.22,202.54,31.77Z" transform="translate(-0.25 -0.25)"/><path d="M200.17,5l2.29,2.3v.16l-.07-.09-2.34-2.29,0,0Z" transform="translate(-0.25 -0.25)"/><path d="M202.39,7.36l.07.09c-.09,5.91-.39,6.37-4,6.69-.27-2.53-.55-5.08-.9-8.33L200,5l0,0Z" transform="translate(-0.25 -0.25)"/><path d="M201.71,27.19l-2.26.41L198.13,25V23.07h.51c-.12-.81-.21-1.44-.29-2l2.17-.4C200.91,22.79,201.3,25,201.71,27.19Z" transform="translate(-0.25 -0.25)"/><path class="cls-6" d="M200.49,33.68c.27,1.21.46,2.1.66,3l-12,1.34C191.58,31.58,196.62,35,200.49,33.68Z" transform="translate(-0.25 -0.25)"/><path class="cls-6" d="M199.45,27.6H192V25h6.12Z" transform="translate(-0.25 -0.25)"/><path class="cls-6" d="M198.64,23.07h-6.17l.63-2.76,5.22.5,0,.25C198.43,21.63,198.52,22.26,198.64,23.07Z" transform="translate(-0.25 -0.25)"/><path class="cls-6" d="M196.28,29.34a4.27,4.27,0,0,1,4.27,2.79L190.4,33l1.09-3.77C192.92,29.81,194.64,29.34,196.28,29.34Z" transform="translate(-0.25 -0.25)"/><path d="M189.06,251.53c.73.64.91,1.9,1.6,3.56l-5,.31c.31-1.43.27-2.71.87-3.5A2.61,2.61,0,0,1,189.06,251.53Zm-.34,1.92c-.07-.22-.15-.44-.22-.66l-1.26.52c0,.17.11.33.17.5Z" transform="translate(-0.25 -0.25)"/><path class="cls-4" d="M188.5,252.79c.07.22.15.44.22.66l-1.31.36c-.06-.17-.12-.33-.17-.5Z" transform="translate(-0.25 -0.25)"/><path class="cls-10" d="M157.09,78.17c13-.25,23.31,11,23.28,24.62-.17,11.8-8.93,22.43-22.37,22.25-13-.17-23.72-10-23.72-24C134.29,88.32,142.23,78.45,157.09,78.17Zm19.54,23.11c.22-9.48-9-19-18.79-18.64a18.65,18.65,0,0,0,0,37.3A19,19,0,0,0,176.63,101.28Z" transform="translate(-0.25 -0.25)"/><path d="M175.05,84.06c9.65,9.84,10.52,21.55,4.54,31.7a24.31,24.31,0,0,1-28.11,10.77,26,26,0,0,1-15.85-13.11,27,27,0,0,1-2.35-19.66c-2.44-1.9-4.51-3.68-6.76-5.21-3.14-2.14-2.84-5.15-2-8.07A5.17,5.17,0,0,1,131,76.61c.7.15,1.4.33,2.11.53,3,.84,6.12,2,10,3.23a23.52,23.52,0,0,1,11.72-4.15A26.57,26.57,0,0,1,175.05,84.06Zm5.32,18.73c0-13.61-10.3-24.87-23.28-24.62-14.86.28-22.8,10.15-22.81,22.88,0,14,10.72,23.82,23.72,24C171.44,125.22,180.2,114.59,180.37,102.79ZM133.61,91.57c2.49-3.52,4.36-6.18,6.39-9.06-1.73-2-6.66-4.39-9.14-4.41-4.11,0-6.54,3.48-4.25,6.85C128.38,87.57,131.27,89.42,133.61,91.57Z" transform="translate(-0.25 -0.25)"/><path d="M171.72,61.33c6.47.14,6.47.81,6.38,7.4,0,1-.11,2-.2,3.6a32.52,32.52,0,0,1-4.52,1Q164,74,154.69,74.58l-15.33,1c-.88.06-1.76.15-2.65.2a10.25,10.25,0,0,1-3.2-.24c-2.3-.62-3-2.44-2.66-6,.1-1,.17-2,.27-3.22,4.27-3.28,9.12-3.38,13.85-3.69C153.88,62.05,162.82,61.15,171.72,61.33Zm-.34,9.35c2-.16,3.92-.65,3.73-3.26s-2.23-3.1-4.38-3.09c-7.55,0-15.11,0-22.66.23a51.17,51.17,0,0,0-11.16,1.58c-2.55.67-4.32,2.61-2.59,5.89,6.27,0,12.45.17,18.61,0S165.23,71.17,171.38,70.68Z" transform="translate(-0.25 -0.25)"/><path d="M176.63,215.26l0,1.12-6,.9c.73,9.27,1.42,17.85,2.1,26.43l-1.27.09c-.74-8.75-1.49-17.5-2.26-26.54l-10,.92c0,12.19-.05,24,.09,35.79a4.15,4.15,0,0,0,2,3,15.77,15.77,0,0,0,6.33,2l1.07,0,0,.86-4.35.08c-3.9.08-5.92-2-6.7-5.3A56,56,0,0,1,156.12,244c-.24-6.92-.07-13.85-.07-21.7l-38.2,3.81c.65,5.75,1.25,11,1.81,16.15.75,7,1.86,14,2.11,21.05.53,14.42,1,28.87.71,43.29-.19,9.93-1.73,19.83-2.51,29.76-.32,4.15-.23,8.34-.31,12.52-.14,6.43-.2,12.87-.4,19.3-.1,3.14-.44,6.26-.72,10.07a12.54,12.54,0,0,1-.44-1.76c-.31-14.67-1-29.36-.76-44l0-1.16c.33-10.4,2.3-20.76,2.53-31.16.27-12.49-.32-25-1.05-37.52-.67-11.44-2-22.85-3.1-34.26A26.91,26.91,0,0,0,115,225c-11.74,5.9-20.89,14.25-28.85,23.43l3,3.86-3.86,2.3c-.45-1.53-.7-2.36-1.08-3.67-.35.83-.72,1.42-.89,1.93l-1.88-.54a19.84,19.84,0,0,1,3.42-5.86,97.23,97.23,0,0,1,24.9-21.88c3-1.91,7-2.74,10.61-3.27,13.77-2,27.55-4.45,41.41-5.28C166.69,215.68,171.66,215.45,176.63,215.26ZM87,252.43c.17-.36.35-.73.52-1.1l-.92-.4-.42,1.17Z" transform="translate(-0.25 -0.25)"/><path d="M157.84,82.64c9.74-.35,19,9.16,18.79,18.64a19,19,0,0,1-18.8,18.66,18.65,18.65,0,0,1,0-37.3Zm14.72,19.74c.54-4.2-3.17-11.45-7.18-12.82-2-.67-5.12-.74-6.48.41-2.26,1.9-2,4.89,0,7.48s3.69,5.39,5.69,8A9.22,9.22,0,0,0,167,107.2C170.39,107.29,172.15,105.52,172.56,102.38Zm-9.74,7.14c0-3.29-3.45-6.41-7.19-6.51s-6.46,2.77-6.5,6.79c0,4.25,2.41,7,6.23,7C159,116.8,162.82,113.09,162.82,109.52Z" transform="translate(-0.25 -0.25)"/><path class="cls-6" d="M175.11,67.42c.19,2.61-1.75,3.1-3.73,3.26-6.15.49-12.29,1.08-18.45,1.3s-12.34,0-18.61,0c-1.73-3.28,0-5.22,2.59-5.89a51.17,51.17,0,0,1,11.16-1.58c7.55-.28,15.11-.2,22.66-.23C172.88,64.32,174.91,64.73,175.11,67.42Z" transform="translate(-0.25 -0.25)"/><path d="M167.76,254l-1.1,1.09-3.86-2.1c.1-.43.21-.87.31-1.3,1.07-.22,2.38-.92,3.14-.54S167.28,253,167.76,254Zm-1.71-.7.09-.65-1.4-.13c0,.17-.05.35-.08.52Z" transform="translate(-0.25 -0.25)"/><path d="M166.58,235.9c.36,2.43.17,4.37-2.55,4.09a3.18,3.18,0,0,1-1.76-2.56C162.71,234.93,164.5,234.89,166.58,235.9Zm-.92,1.58-1.41-.93c-.2.59-.41,1.17-1,2.77Z" transform="translate(-0.25 -0.25)"/><path d="M166.12,223.44c.51.42.67,2.3.26,2.64a20.22,20.22,0,0,1-4.06,2.1l-1.4-1.45c.66-1.4,1.1-3,2.11-4.09C163.4,222.24,165.33,222.79,166.12,223.44Zm-2.24,3.13c.38-.81.75-1.63,1.12-2.44l-1.43-.52c-.29.83-.58,1.66-.88,2.48Z" transform="translate(-0.25 -0.25)"/><path class="cls-4" d="M166.14,252.6l-.09.65-1.39-.26c0-.17.05-.35.08-.52Z" transform="translate(-0.25 -0.25)"/><path class="cls-4" d="M164.25,236.55l1.41.93-2.38,1.84C163.84,237.72,164.05,237.14,164.25,236.55Z" transform="translate(-0.25 -0.25)"/><path class="cls-4" d="M165,224.13c-.37.81-.74,1.63-1.12,2.44l-1.19-.48c.3-.82.59-1.65.88-2.48Z" transform="translate(-0.25 -0.25)"/><path class="cls-1" d="M154.69,74.58l.11,1.64a23.52,23.52,0,0,0-11.72,4.15c-3.89-1.23-7-2.39-10-3.23l.44-1.58a10.25,10.25,0,0,0,3.2.24c.89,0,1.77-.14,2.65-.2Z" transform="translate(-0.25 -0.25)"/><path class="cls-6" d="M140,82.51c-2,2.88-3.9,5.54-6.39,9.06-2.34-2.15-5.23-4-7-6.62-2.29-3.37.14-6.88,4.25-6.85C133.34,78.12,138.27,80.48,140,82.51Zm-3.23,2.07-.12-1.9c-1.71-.56-3.42-1.49-5.14-1.51-.79,0-2.36,1.89-2.22,2.7.2,1.21,1.75,3.22,2.45,3.11C133.5,86.71,135.1,85.45,136.77,84.58Z" transform="translate(-0.25 -0.25)"/><path d="M136.65,82.68l.12,1.9c-1.67.87-3.27,2.13-5,2.4-.7.11-2.25-1.9-2.45-3.11-.14-.81,1.43-2.71,2.22-2.7C133.23,81.19,134.94,82.12,136.65,82.68Zm-2.77,2.56c.37-.08.85-1.56.62-2.13s-1.28-.9-2.27-1.52L130,83.7l.36,1.46A14.45,14.45,0,0,0,133.88,85.24Z" transform="translate(-0.25 -0.25)"/><path class="cls-7" d="M134.5,83.11c.23.57-.25,2-.62,2.13a14.45,14.45,0,0,1-3.53-.08L130,83.7l2.24-2.11C133.22,82.21,134.25,82.5,134.5,83.11Z" transform="translate(-0.25 -0.25)"/><path d="M134.37,330.25l-.12.24c-.06-.12-.13-.23-.19-.34Z" transform="translate(-0.25 -0.25)"/><path d="M139.49,196.11c-5.08-.55-12-6-12.72-9.74Z" transform="translate(-0.25 -0.25)"/><path class="cls-10" d="M118.85,262.62c.73,12.49,1.32,25,1.05,37.52-.23,10.4-2.2,20.76-2.53,31.16l-.88,0c-8.3-.62-15.12,6.71-23.87,4.29-.66-6.32-.76-12.67-2.12-18.75-1.45-6.44-3.6-12.67-3.76-19.41-.14-5.52-1-11-1.47-16.54q-.34-4.29-.68-8.58-.75-9.45-1.41-18.9a1.47,1.47,0,0,1,.09-.57c.17-.51.54-1.1.89-1.93.38,1.31.63,2.14,1.08,3.67l3.86-2.3-3-3.86c8-9.18,17.11-17.53,28.85-23.43a26.91,26.91,0,0,1,.77,3.4C116.84,239.77,118.18,251.18,118.85,262.62Zm-7-23.79,1.29-1.38-3-5.1-3.71,4.39Zm0,89.13,4.18-3.43c-4.3-3.23-5.2-3.06-7,1Zm0-31.58c.68-9.55.88-19.13-1.91-28.52-1-3.2-3.19-4.32-5.68-3.24-4.17,1.81-8.57,3.67-10.44,8.55-2.67,7-1.6,14.16-1.21,21.29.2,3.69.83,7.33,5.19,9.6,1.11,0,2.5.08,3.88,0C107.59,303.61,111.51,301.06,111.84,296.38ZM96.06,333.16c3.59-2.07,3.71-2.46,1.44-4.05a9.61,9.61,0,0,0-1.37-1.37,33.21,33.21,0,0,0-3,2.68Z" transform="translate(-0.25 -0.25)"/><path d="M124.06,181.49c-5.3-12.46-4.8-26.37-5.38-40C120.5,155,122.32,168.51,124.06,181.49Z" transform="translate(-0.25 -0.25)"/><path d="M92.62,335.56c8.75,2.42,15.57-4.91,23.87-4.29-8,3.65-15.75,8.47-25.76,6.83-.49-3.3-1-6.73-1.5-10.15-1.15-7.27-2.45-14.53-3.49-21.82-1.48-10.3-3-20.6-4.1-30.95-.1-.89-.17-1.78-.23-2.67l1.22-.08a.35.35,0,0,1,0,.09c0,.06,0,.14.06.22,0-.08.05-.15.06-.21h0s0,0,0,0v0h0v0l1.79-.14q.33,4.29.68,8.58c.45,5.52,1.33,11,1.47,16.54.16,6.74,2.31,13,3.76,19.41C91.86,322.89,92,329.24,92.62,335.56Z" transform="translate(-0.25 -0.25)"/><path class="cls-3" d="M113.19,323.68c.12.42.24.83.35,1.25l-2.66.83c-.13-.45-.25-.9-.38-1.35Z" transform="translate(-0.25 -0.25)"/><path d="M113.14,237.45l-1.29,1.38-5.47-2.09,3.71-4.39ZM111,237l.12-1.07-2.07-.28-.12,1Z" transform="translate(-0.25 -0.25)"/><path d="M116,324.53,111.85,328,109,325.55C110.83,321.47,111.73,321.3,116,324.53Zm-2.49.4c-.11-.42-.23-.83-.35-1.25l-2.69.73c.13.45.25.9.38,1.35Z" transform="translate(-0.25 -0.25)"/><path d="M109.93,267.86c2.79,9.39,2.59,19,1.91,28.52-.33,4.68-4.25,7.23-10.17,7.66-1.38.1-2.77,0-3.88,0-4.36-2.27-5-5.91-5.19-9.6-.39-7.13-1.46-14.31,1.21-21.29,1.87-4.88,6.27-6.74,10.44-8.55C106.74,263.54,109,264.66,109.93,267.86Z" transform="translate(-0.25 -0.25)"/><path class="cls-5" d="M111.68,156.09c.21,1.52.48,3.38.75,5.26-4.26,2-6.08.8-7.94-5.26Z" transform="translate(-0.25 -0.25)"/><path class="cls-6" d="M111.46,154.26h-7.72L102.31,148l8.73,1.2C111.16,150.64,111.28,152.12,111.46,154.26Z" transform="translate(-0.25 -0.25)"/><path class="cls-3" d="M111.15,235.91,111,237l-2.07-.31.12-1Z" transform="translate(-0.25 -0.25)"/><path class="cls-5" d="M106.23,113.55c1.73,11.67,3.36,22.72,5.09,34.45l-10-2c-.51-8.05-1.07-15.41-1.38-22.78a24.41,24.41,0,0,1,.85-7C101.47,113.33,103.8,113.43,106.23,113.55Z" transform="translate(-0.25 -0.25)"/><path d="M97.5,329.11c2.27,1.59,2.15,2-1.44,4.05l-2.94-2.74a33.21,33.21,0,0,1,3-2.68,9.61,9.61,0,0,1,1.37,1.37l-.09.19-2.1,1,1.13,1.13c.32-.71.65-1.4,1-2.1l.19-.09A.94.94,0,0,0,97.5,329.11Z" transform="translate(-0.25 -0.25)"/><path d="M97.77,389.46l-2.28.3q-2-24.86-4-49.7l1.26-.12C95.94,356.3,96,373,97.77,389.46Z" transform="translate(-0.25 -0.25)"/><path d="M97.6,329.21l-.19.09.09-.19A.94.94,0,0,1,97.6,329.21Z" transform="translate(-0.25 -0.25)"/><path class="cls-3" d="M97.41,329.3c-.32.7-.65,1.39-1,2.1l-1.13-1.13Z" transform="translate(-0.25 -0.25)"/><path class="cls-3" d="M87.54,251.33c-.17.37-.35.74-.52,1.1l-.82-.33.42-1.17Z" transform="translate(-0.25 -0.25)"/><path d="M84.59,272.28l-1.79.14v0h0v0s0,0,0,0h0a1.89,1.89,0,0,1-.06.21c0-.08,0-.16-.06-.22a.35.35,0,0,0,0-.09l-1.22.08c-.36-5-.26-10.07-.66-15.09a12.54,12.54,0,0,1,.64-5.15l1.88.54a1.47,1.47,0,0,0-.09.57Q83.84,262.83,84.59,272.28Z" transform="translate(-0.25 -0.25)"/><path d="M24,361.83c0,.05-.06.11-.09.17s0,.14,0,.21c-3.44,3.06-7,6-10.23,9.24-1.22,1.2-1.75,3.1-2.59,4.68L9,375.22.25,365.76c2.08-2.82,3.53-5.34,5.49-7.36,8.17-8.42,16.49-16.69,24.77-25,2.18-2.19,4.45-4.29,6.58-6.53,3.63-3.82,7.84-4.62,12.65-2.67,7.53,3,13.53,8.16,18.6,14.33,1,1.26,1.12,3.58,1.06,5.39A11.89,11.89,0,0,0,73.07,353c3.3,3.47,6.31,7.22,9.31,11a4.31,4.31,0,0,1,.66,2.8c-.17,2.07-.41,4.14-.67,6.31l-1.64-.2c.21-1.68-.41-3.52-1.88-6-.22,3.81-.4,6.82-.6,10.31l1,1.95c-7.14,3.62-12.77-3.71-19.54-5.26-.54,4.48-1.25,9.21-1.62,14-.3,3.84-5.06,9.08-8.56,9-5.1-.14-9.7-4.39-9.79-9.15-.06-3.73,0-7.46,0-11.94l-9.23,14.46-8.69-5.92c.7-7.64,1.38-14.87,2-22.1l.13-.11A2.13,2.13,0,0,0,24,361.83Zm52.59,5.63c.36-1.87,1.65-4.33.91-5.49-1.79-2.82-4.52-5-6.89-7.47-.84-.87-1.75-1.67-2.48-2.36-.57.95-1.28,2.1-2,3.26S64.75,358,63.62,360l11.23,8Zm-19-.56c3.19-8.44,6.21-16.42,9.48-25.1-6.19-4.44-11.62-8.77-17.51-12.33-2.14-1.3-6.33-2.07-8-.86a136,136,0,0,0-15.86,14.33c-.89.9-.67,3.88.13,5.29C32.83,360.55,44.85,364.23,57.6,366.9Zm-2.54,18.23c.26-4.18.51-8.17.77-12.28l-7.11-3.14c-.22,4.47-.68,8.32-.52,12.15C48.35,385.29,51.37,386.67,55.06,385.13Zm-12.12,4.41c3.31,5.16,4.53,5.32,11.34,1.5C50.55,389.94,47.25,386.11,42.94,389.54Zm-3.55-14.12.24-.21c-.07-.08-.13-.22-.21-.22s-.21.11-.22.19S39.32,375.34,39.39,375.42Zm1.35-7.87c-1.44-1.32-2.82-3-4.6-3.94-.55-.29-2.71,1.21-3.2,2.31-1.47,3.27-2.47,6.74-3.57,9.89L33.85,379ZM29.63,386.08c3.57-3.23,3.49-3.41-3.27-7.13C24.08,383.23,25,385.19,29.63,386.08Zm-6.08-29.49c.86-1.14.46-3.37.3-5.08-.07-.74-1-1.41-1.71-2.39L10,360.14,11,361.2l3.71,5.19C17.76,363.11,20.93,360.06,23.55,356.59ZM5.28,367.88c1.3,2.07,2.89,4.87,7,1.76-1.43-2.07-2.81-4.09-4.12-6C5.29,364.23,3.83,365.57,5.28,367.88Z" transform="translate(-0.25 -0.25)"/><path d="M80.73,372.91l1.64.2c-.16,1.39-.34,2.82-.51,4.33a13.43,13.43,0,0,1-2.56,1.73l-1-1.95A7.67,7.67,0,0,0,80.73,372.91Z" transform="translate(-0.25 -0.25)"/><path class="cls-1" d="M78.85,366.91c1.47,2.48,2.09,4.32,1.88,6a7.67,7.67,0,0,1-2.48,4.31C78.45,373.73,78.63,370.72,78.85,366.91Z" transform="translate(-0.25 -0.25)"/><path class="cls-10" d="M77.51,362c.74,1.16-.55,3.62-.91,5.49l-1.75.57-11.23-8c1.13-2,1.83-3.32,2.57-4.59s1.38-2.31,2-3.26c.73.69,1.64,1.49,2.48,2.36C73,356.93,75.72,359.15,77.51,362Z" transform="translate(-0.25 -0.25)"/><path class="cls-10" d="M50.37,360.55l.33.08h0a.13.13,0,0,1,0-.06c2.67.63,5.53,3.53,7.89-.83,1.28-3.57-1.24-5.2-4.64-6.52-3.23,1-3,4.28-3.25,7.34l-.09,0ZM67.08,341.8c-3.27,8.68-6.29,16.66-9.48,25.1-12.75-2.67-24.77-6.35-31.73-18.67-.8-1.41-1-4.39-.13-5.29A136,136,0,0,1,41.6,328.61c1.64-1.21,5.83-.44,8,.86C55.46,333,60.89,337.36,67.08,341.8ZM45.2,357.08c2.45-1.69,1.57-4.1.06-6.53-2.53.18-5.62-1.27-6.3,2.38a5,5,0,0,0,1.56,4.24A5.18,5.18,0,0,0,45.2,357.08Zm-11-5.5c2-.11,4.93-.33,4.74-3.61-.16-2.72-1.72-4.33-3.25-4.42-4,0-5.68,1.21-5.8,4S31.94,351.71,34.25,351.58Z" transform="translate(-0.25 -0.25)"/><path d="M54,353.23c3.4,1.32,5.92,2.95,4.64,6.52-2.36,4.36-5.22,1.46-7.89.83h0C51,357.51,50.74,354.19,54,353.23Zm1.64,4.69-.67-.75-1,1,.57.62Z" transform="translate(-0.25 -0.25)"/><path class="cls-3" d="M54.94,357.17l.67.75-1.08.87-.57-.62Z" transform="translate(-0.25 -0.25)"/><path class="cls-10" d="M55.83,372.85c-.26,4.11-.51,8.1-.77,12.28-3.69,1.54-6.71.16-6.86-3.27-.16-3.83.3-7.68.52-12.15Z" transform="translate(-0.25 -0.25)"/><path d="M50.72,360.57h0a.13.13,0,0,0,0,.06h0l-.07-.08Z" transform="translate(-0.25 -0.25)"/><path d="M50.63,360.55l.07.08-.33-.08Z" transform="translate(-0.25 -0.25)"/><path class="cls-1" d="M54.28,391c-6.81,3.82-8,3.66-11.34-1.5C47.25,386.11,50.55,389.94,54.28,391Z" transform="translate(-0.25 -0.25)"/><path d="M45.26,350.55c1.51,2.43,2.39,4.84-.06,6.53a5.18,5.18,0,0,1-4.68.09A5,5,0,0,1,39,352.93C39.64,349.28,42.73,350.73,45.26,350.55Zm-2.71,4.18v-.25l-.91,0c0,.13,0,.27,0,.4Z" transform="translate(-0.25 -0.25)"/><path class="cls-3" d="M42.55,354.48v.25l-.9.11c0-.13,0-.27,0-.4Z" transform="translate(-0.25 -0.25)"/><path d="M39,348c.19,3.28-2.75,3.5-4.74,3.61-2.31.13-4.43-1.19-4.31-4.07s1.85-3.94,5.8-4C37.27,343.64,38.83,345.25,39,348Z" transform="translate(-0.25 -0.25)"/><path class="cls-10" d="M36.14,363.61c1.78.94,3.16,2.62,4.6,3.94L33.85,379l-4.48-3.17c1.1-3.15,2.1-6.62,3.57-9.89C33.43,364.82,35.59,363.32,36.14,363.61Z" transform="translate(-0.25 -0.25)"/><path class="cls-1" d="M26.36,379c6.76,3.72,6.84,3.9,3.27,7.13C25,385.19,24.08,383.23,26.36,379Z" transform="translate(-0.25 -0.25)"/><ellipse cx="26.3" cy="392.09" rx="0.23" ry="0.77"/><path d="M24,362.1l-.13.11c0-.07,0-.14,0-.21s.07-.12.09-.17A2.13,2.13,0,0,1,24,362.1Z" transform="translate(-0.25 -0.25)"/><path class="cls-10" d="M23.85,351.51c.16,1.71.56,3.94-.3,5.08-2.62,3.47-5.79,6.52-8.81,9.8L11,361.2,10,360.14l12.17-11C22.87,350.1,23.78,350.77,23.85,351.51Z" transform="translate(-0.25 -0.25)"/><path d="M18.62,383.88l.52.64-1-.12Z" transform="translate(-0.25 -0.25)"/><path class="cls-1" d="M12.32,369.64c-4.15,3.11-5.74.31-7-1.76-1.45-2.31,0-3.65,2.92-4.24C9.51,365.55,10.89,367.57,12.32,369.64Z" transform="translate(-0.25 -0.25)"/></g></g></svg>