<svg id="Original_copy" data-name="Original copy" xmlns="http://www.w3.org/2000/svg" viewBox="0 0 500 500"><title>roboto</title><path d="M244.51,90.57c1,5.49,2,10.9,3.08,16.69,7.86,1.83,16.31,3.22,18.31,13.82,3.6-.2,7.36-.6,11.12-.59,7.32,0,14.64.42,22,.41,6.62,0,13.05.62,18.94,4,6.37,3.61,10.28,8.76,11.53,16.21,1.7,10.09-.53,19.75-2.16,29.52a10.73,10.73,0,0,0-.2,1.48,3.93,3.93,0,0,0,.21,1c8.15.79,10.13,3.21,10.5,11.61.48,10.83-1.92,21.26-4,31.75-.54,2.74-1.56,5.38-2.26,8.09-1,3.92-4.21,4.73-7.51,5.13a28.81,28.81,0,0,1-5.34-.27c-1.75,8.61-3.41,17.41-5.37,26.15-1.35,6-7.33,10.44-13.43,10.75-13.57.68-27.13,1.55-40.7,2.36a4.13,4.13,0,0,0-1,.36c-.8,7.8-.83,8.34-9.2,9.47a180.46,180.46,0,0,1-23.71,1.35c-5.13,0-8.21-3.57-8.62-8.56-5.38,0-10.77.06-16.15,0-8.78-.12-17.67.45-26.31-.76-6.55-.92-10-7-11.9-12.94-1.91-6.15-2.7-12.66-4-19-.27-1.33-.55-2.66-.8-3.9l-10.13-1.4c-1.6-5.21-4.08-10.67-4.84-16.36a243.54,243.54,0,0,1-1.67-27.16c-.15-7.74,2-10,9.14-11.44-1-10.27-2.3-20.48-3-30.73-.52-7.35,3.06-13.07,10-15.23a175.2,175.2,0,0,1,26.2-6c10.81-1.61,21.76-2.22,32.74-3.27,1.08-7.65,6.14-11.46,12.76-13.61,2.28-.74,3.05-2.09,3.4-4.3.81-5.2,1.86-10.35,2.83-15.59-6.85-6.8-5-13.4-.34-17.26,3.84-3.14,12-2.18,14.72,1.69C252.22,78.14,252.76,86.07,244.51,90.57Zm2-13-2.35-2.28c-.33-.49-.57-1.24-1-1.4a6.79,6.79,0,0,0-6.35,11.74c2.72,2.2,5.66,2.29,8.26.06S248.94,80.85,246.47,77.61Zm-56.59,192,0-1.08c7.19,0,14.38.14,21.56-.05,5.17-.14,10.33-.75,15.5-1.12,11.83-.87,23.66-1.75,35.5-2.57,11.57-.8,23.14-1.46,34.7-2.32,4.5-.34,7.84-2.85,10.57-6.39,3.77-4.9,3.82-10.81,4.67-16.48,1.44-9.71,2.66-19.46,4-29.18,1.45-10.48,3.06-20.94,4.38-31.44,1.28-10.13,2.73-20.28,3.21-30.47a32.9,32.9,0,0,0-2.81-14.24c-3.38-7.77-11-9.21-18.43-9.4-24.66-.6-49.22,1.43-73.83,2.69-17.27.89-34.49,1.91-51.6,4.2a94.74,94.74,0,0,0-19.23,4.84c-4.68,1.68-7.23,5.85-7.13,11.08a136.47,136.47,0,0,0,.69,14.74c1.54,12,3.58,24,5.12,36,1.71,13.35,2.84,26.78,4.7,40.11,1.18,8.53,2.61,17.21,8.14,24.26,1.83,2.33,4.43,4.78,7.13,5.54C180.92,269.48,185.49,269.23,189.88,269.57Zm31-146.92,36.54-1.4L251.5,114c5,.08,5.69.71,7.83,6.93l2.16-.2c-.46-6.88-6.05-9.35-21.76-9.78C231,110.74,221.56,116.57,220.84,122.65Zm105.36,55.2c-1.68,11.42-3.33,22.69-5.09,34.62l9.61-1.13c1.1-9.16,2.44-18,3.13-26.8C334.26,179.26,332.1,177.63,326.2,177.85ZM146.13,216.29l10,1.89c-1.76-11.84-3.41-23-5.08-34.19-2.67-.54-4.87-.24-5.53,2.53a27.46,27.46,0,0,0-.82,7.43C145,201.08,145.6,208.19,146.13,216.29Zm109.26,52.57-35.17,1.37,1.76,6.15c4.31,0,8.22.22,12.09-.05,6.23-.42,12.48-.91,18.64-1.89C255.3,274,257.15,272.06,255.39,268.86Zm65.5-55.5c-.43,2-.85,4.09-1.32,6.35h8.54q.76-3.19,1.5-6.35Zm-173.74,4.9c.45,2,.88,3.89,1.42,6.25h7.73c-.18-2.14-.3-3.62-.42-5Zm171.44,8.13c6.05.68,7.43-.11,8.88-4.75h-8.38C318.92,223.29,318.77,224.73,318.59,226.39Zm-161.27,5.8c-.33-2.39-.58-4.27-.79-5.84H149c.94,1.93,1.84,3.76,2.86,5.84ZM245.22,107c-.18-.92-.34-1.75-.5-2.54-9-.78-10-.45-11,3.73Zm-10.6-3.77L245,102.3c-3-4.31-6.64-1.89-9.57-2.72C235.08,101,234.86,102.07,234.62,103.21Zm7.8-8h-6.23v2.72h7.21Zm-6-1.81h6.19c-.06-.88-.11-1.59-.16-2.29l-5.2-.54C237,91.43,236.79,92.2,236.44,93.38Z"/><path d="M158.1,294.8l-29,23.9,4.88,2.17c0,4.12-2.73,3-4.9,3.22-.22-.92-.42-1.7-.9-3.63-.46,2.1-.94,3.15-.87,4.16q.61,9.42,1.44,18.83c1,11.53,1.82,23.09,3.17,34.58.38,3.15,2.89,6,3.5,9.17,1,5,1.16,10.23,1.68,15.36.11,1.1.22,2.2.33,3.27,8.61,2.28,15.22-4.5,23.17-4.27-7.69,4.12-15.34,8.3-25.11,6.81-.46-3.78-.8-7.62-1.4-11.42-.69-4.34-1.56-8.66-2.43-13-1.17-5.87-2.88-11.68-3.53-17.61-1.36-12.38-2-24.83-3.28-37.21-.73-6.91,2.68-11.76,7.19-15.87A240.93,240.93,0,0,1,152.88,296a27.71,27.71,0,0,1,11.7-4.43c13.63-2.12,27.3-4.49,41-5.3,20.8-1.22,41.67-1.33,62.51-1.69,19.19-.33,38.2,1.92,57,5.55,3.8.74,7.76,3.71,10.41,6.74,6.46,7.4,12.3,15.36,18.15,23.27,1.87,2.54,3.13,5.36,2.46,9-.59,3.25.42,6.76.53,10.15a188.75,188.75,0,0,1-6.94,57.26c-3.94,14.22-4.89,28.6-4.52,43.2a143.51,143.51,0,0,1-.56,17.82c-2.24-15.27-2-30.62-1.74-45.41l-21.43-13.23c-1.26,10.46-2.54,21.05-3.82,31.65h-.46c0-4.33-.24-8.67.05-13,.46-6.64,1.54-13.25,1.9-19.9.61-11,.78-22,1.28-32.95.38-8.2.93-16.39,1.54-24.58.43-5.66.94-11.31,1.71-16.93,1.23-9,2.7-17.88,4.16-27.39a184.34,184.34,0,0,0-46.49-3.52c0,4.48.08,8.74,0,13-.14,5.94-.24,11.9-.68,17.83-.25,3.41-3.15,4.67-6,5.43a26.48,26.48,0,0,1-6.34.8c-20.12.31-40.24.52-60.35.83-3.6.06-5.41-2.07-6.15-5a51.54,51.54,0,0,1-1.61-10.68c-.24-7-.07-14.09-.07-22l-38.23,3.84c.67,5.82,1.29,11,1.85,16.26.76,7,1.82,14,2.11,21,.53,13.16,1,26.35.71,39.5-.26,11.2-1.8,22.37-2.54,33.56-.31,4.78.08,9.61,0,14.41-.1,5.56-.33,11.12-.6,16.67-.15,3.28-.5,6.54-.82,10.59a13.27,13.27,0,0,1-.43-1.81c-.3-14.55-.74-29.11-.8-43.66,0-4.59,1.2-9.17,1.52-13.78.6-8.7,1.5-17.43,1.31-26.13-.32-15.54-1.18-31.08-2.18-46.59-.46-7-1.8-13.91-2.74-20.86Zm194,27.71.1.13-.19-.06c-6.93-9.11-13.87-18.23-21.4-28.11-.44,2.88-.69,4.45-.92,6-1.12,7.84-2.48,15.65-3.28,23.52-1.06,10.53-1.83,21.1-2.45,31.67-.63,10.72-1.2,21.45-1.23,32.18,0,3.22-.73,7.34,2.86,9.68,5.94,3.86,12,7.59,18.32,11.6,9.45-27.49,12.07-54.64,10.16-82.2l-4.59-.29C348.62,323.56,349.43,322.32,352.05,322.51Zm-149.52-34c0,3.81-.15,7.48,0,11.13.36,7.17,1.23,14.33,1.28,21.5,0,5.65,1.52,8,7.32,8.15,3.25.1,6.52-.55,9.79-.62,14.67-.31,29.34-.5,44-.82a69.18,69.18,0,0,0,9-.79,5.65,5.65,0,0,0,5.19-6c.1-11.36,0-22.71,0-34.53L267.55,286v25.82l-1.16,0v-25.5h-7.75c0,3.64.63,7.19-.19,10.37-.69,2.66-2.55,5.85-4.82,7.1a29.64,29.64,0,0,1-24.17,2c-4.22-1.4-8-3.95-8.23-9.29-.13-3.08-.32-6.16-.51-9.69l-5.94.76c.71,9.24,1.38,17.87,2.05,26.49l-1.26.07c-.72-8.71-1.45-17.42-2.21-26.51Zm-72,34.07.92-.11-.12-1.17c-.31.05-.85,0-.87.16A3.3,3.3,0,0,0,130.57,322.59ZM126.66,343h.21v-.9h-.21Zm224.85-17.42L352,325l-1-.78-.36.34Z"/><path d="M439.85,268.76a60.72,60.72,0,0,1,18.55-10.33c1.91,3.19,4,6,5.39,9.21,1.09,2.47.11,4.77-2.39,6.33q-19.09,11.88-38.13,23.84c-5.3,3.32-10.65,4.23-16.09.23-5.78-4.24-11.75-8.24-17.33-12.73-3.54-2.84-3.76-7-2.21-11.05a8.06,8.06,0,0,0-.63-7.85c-2.15-3.52-3.62-7.46-5.86-10.91-3.15-4.86-2-10-1.41-15.05.52-4.23,9.23-6.88,12.48-4s6.26,6.11,9.54,9a24.16,24.16,0,0,0,4.46,2.5c2.47-6.55,4.75-12.86,7.24-19.08,1.38-3.44,8.3-5.57,11.3-3.5,2.44,1.69,4.64,3.74,6.44,5.22-1.21,7.29-2.31,13.84-3.4,20.39,4.47-5.37,7.37-11.85,15.09-12.85,5.61,7.06,5.65,13.19,1,20.62-1.88,3-2.68,6.69-4,10.06-.36,0-.72,0-.11,0C439.2,269,439.52,268.87,439.85,268.76Zm-5.15,16.61c-1.43-3.52-2.35-7.27-4.32-10.33-4.05-6.28-8.67-12.19-13.05-18.25-2.64-3.66-6.26-5.14-11-5-1.92,2.71-4.09,5.37-5.8,8.29-2.95,5.08-5.75,10.26-8.31,15.54a6.07,6.07,0,0,0,.12,4.6,13.38,13.38,0,0,0,3.75,4.92c4.52,3.51,9.2,6.81,14,10,2.59,1.72,5.38,2.5,8.44.46C423.53,292.21,428.75,289.09,434.7,285.37Zm-37-27.32c-1.51-4.19-2.32-8.56-7.61-10.15l-5.25,4.4,6.57,13.33C396.11,265.15,395.26,260.16,397.7,258.05Zm52.35,8.09-12.51,9.92c.65,1.88,1.25,3.63,1.92,5.61,3.51-2,6.43-3.63,9.39-5.24C453.53,273.9,454.12,271,450.05,266.14Zm-33.42-33.69c-4.74,4.46-5.07,10.09-6.53,15.1l6.55,2.59q2-6.85,4.12-13.84Zm18.11,14.62-7.56,13.56,3.32,4.56c1.21-.69,2.63-1.06,3.32-2a61.66,61.66,0,0,0,4.91-7.74,3.8,3.8,0,0,0-.07-3.13A48,48,0,0,0,434.74,247.07Zm-45.81-4.52c-.71-2.16-1.09-3.29-1.74-5.27L382,241.89v6.19Zm64.5,22.55,3.21,5.19,4.14-1.51c-.35-1.4-.64-2.6-.9-3.61C457.8,263.59,455.87,261.85,453.43,265.1Zm-35-35.25c4.11,4.42,4.93,4.58,9.25,1.61l-5.88-4C420.57,228.36,419.51,229.1,418.44,229.85Zm22.1,18.57,3.7-2.32c-.57-4.22-2.93-4.08-6.19-2.81Z"/><path d="M68.1,432.35c-3.47,3.1-7.06,6.08-10.36,9.35-1.21,1.2-1.74,3.1-2.58,4.68l-2.1-.91L44.33,436c2.08-2.82,3.52-5.34,5.48-7.36,8.17-8.42,16.5-16.69,24.78-25,2.18-2.19,4.45-4.29,6.58-6.53,3.63-3.82,7.83-4.61,12.64-2.67,7.54,3,13.54,8.16,18.61,14.33,1,1.26,1.12,3.58,1,5.39a11.92,11.92,0,0,0,3.68,9.13c3.3,3.47,6.31,7.22,9.31,11a4.26,4.26,0,0,1,.65,2.81c-.28,3.39-.73,6.77-1.18,10.63-8.4,7.11-14.54-1.76-22.09-3.54-.54,4.49-1.26,9.22-1.62,14-.3,3.84-5.06,9.08-8.57,9-5.09-.14-9.69-4.4-9.78-9.16-.07-3.73,0-7.46,0-11.94l-9.23,14.46-8.69-5.91c.71-7.72,1.39-15,2.06-22.32.14-.27.3-.54.09-.18C68.07,431.66,68.09,432,68.1,432.35Zm33.51,4.95c3.21-8.48,6.27-16.57,9.55-25.26-6.22-4.42-11.87-8.84-18-12.54-2-1.23-6.07-1.8-7.65-.62A148.42,148.42,0,0,0,70,413c-1,.94-1.19,3.43-.67,4.8a19.58,19.58,0,0,0,3.86,5.48C80.67,431.8,90.82,435,101.61,437.3Zm17.08.86c3-1.91,4.27-4.06,2.91-6.15-1.7-2.61-4.24-4.67-6.47-6.92-1-1-2.07-1.82-3-2.64l-4.4,7.78Zm-59.84-1.55c3-3.28,6.19-6.33,8.81-9.81.85-1.13.41-3.37.24-5.07-.08-.77-1-1.45-1.72-2.53l-11.6,11.59Zm40.21,18.9c.3-4.15.59-8.15.9-12.41L92.79,440c-.23,4.27-.64,7.9-.58,11.52S95.05,456.92,99.06,455.51ZM84.87,437.67c-1.56-1.31-3-2.9-4.81-3.83-.53-.27-2.55,1.12-3,2.13-1.46,3.39-2.5,6.95-3.55,10l4.41,3.29Zm13.46,23.74c-8.2-3.68-8.2-3.68-11.24-1.31C90.73,464.94,91.46,465,98.33,461.41Zm-46-27.56c-3,.63-4.4,2-3.11,4.1s2.77,5,7.09,2.13Zm18,15.4c-2.18,4.34-1.25,6.29,3.4,7.06C77.28,453,77.17,452.8,70.38,449.25Zm53.79-11.44H123l-.75,9.73c1-1,1.79-1.67,2.82-2.61C124.78,442.66,124.47,440.24,124.17,437.81Zm-40.46,7.66c-.07-.08-.14-.22-.21-.23s-.16.12-.24.19.13.22.21.23S83.63,445.53,83.71,445.47Z"/><path d="M157.48,356.48c-.53,4.54-.79,8.3-1.44,12-.79,4.45-7.16,6.18-12.65,5.81-3-.2-5.1-3.15-5.63-7.8-.89-7.76-1.87-15.54,1-23.13,1.8-4.86,6.22-6.82,10.46-8.49,3.47-1.38,5.46,1.16,6,4.39C156.11,345.21,156.78,351.21,157.48,356.48Z"/><path d="M300,398.87l-117,2.3,0-1.27,117.05-2.36Z"/><path d="M140.32,460l-4-49.66,1.3-.13c3.09,16.38,3.42,33,4.87,49.56Z"/><path d="M155,302.28c1.3,2.45,2.09,3.94,2.89,5.43l-1,1.28-5.52-1.71Zm-.84,3.28-.46,1.19,2.07.5.29-.83Z"/><path d="M161.23,394.91l-3.91,3.84c-1.78-1.49-2.67-2.25-4.17-3.52,1.41-1.07,2.39-2.34,3.53-2.51C157.66,392.57,158.83,393.68,161.23,394.91Zm-5.78-.29.44,1.52c.78-.38,1.55-.74,2.31-1.16a6.15,6.15,0,0,0-.26-1Z"/><path d="M142.34,399.36c2.26,1.59,2.15,2-1.45,4.05L138,400.67a31.51,31.51,0,0,1,3-2.67c.09-.07,1,.95,1.47,1.46l-2.29,1.06,1.13,1.13C141.63,400.88,142,400.12,142.34,399.36Z"/><path d="M178,400.52l.58.08Z"/><path d="M62.07,454.33l.93-.16.08.45-.93.19Z"/><path d="M70.79,462v1.1h-.32V462Z"/><path d="M218.18,210.59c19.08,0,38.17,0,57.25,0,4.16,0,8.31-.47,12.47-.58,3.88-.1,5.71,1.49,5.67,5.39-.11,10.31-.33,20.63-.76,30.93-.12,3-2.49,4.08-5.33,4.15-7.58.19-15.16.46-22.74.64-14,.32-28.06.57-42.09.88-7.08.16-14.15.48-21.23.57-5.95.07-7.85-1.15-8.89-7-1.57-8.74-2.82-17.55-3.7-26.37-.48-4.85,1.53-6.67,6.29-7,7.68-.46,15.36-.77,23-1.15ZM196.66,248c9.81,0,18.27.09,26.73,0,18.33-.23,36.67-.5,55-.93,3.27-.07,6.52-.93,9.88-1.44,1.11-10.34,1.44-19.81,0-29.28-.43-2.79-2.35-4-5.06-4.06-4.53,0-9.07-.08-13.6.06-13.38.42-26.75,1.06-40.13,1.36-12,.28-23.93.22-36.27.32C190,226.73,193.13,237.69,196.66,248Z"/><path d="M187.11,150.64c12.09-8.14,25.27-3.19,32,3.64,9.76,9.92,10.58,21.78,4.4,32a24.24,24.24,0,0,1-28.24,10.34,25.85,25.85,0,0,1-15.52-12.93c-2.94-5.43-3.14-7.65-2.52-19.82-2.27-1.75-4.36-3.5-6.58-5.06-3.22-2.26-2.87-5.27-1.89-8.37,1-3.25,3.7-4.22,6.62-3.58C179,147.68,182.44,149.11,187.11,150.64Zm37.34,22.47c0-13.8-10.43-25.09-23.59-24.68-14.66.45-22.45,10.13-22.5,22.81-.05,14.15,11,23.83,24,24.12C214.38,195.64,224.41,185.2,224.45,173.11Zm-46.83-11.18c2.58-3.67,4.51-6.41,6.49-9.24-2.27-3.37-6-4-9.5-4.22-4-.31-6.19,3.66-3.81,7C172.52,158,175.21,159.72,177.62,161.93Z"/><path d="M295,149c4.49-1.71,8-3.66,11.77-4.22,1.93-.29,5.34,1.44,6.07,3.13.86,2,.28,5.4-1,7.32-1.72,2.59-4.7,4.33-7.31,6.58,2.87,15-2.2,26.37-14.2,31.26-11.22,4.57-24.28.18-31.33-10.55a25.31,25.31,0,0,1,3.84-32.61C271,142.14,284.55,140.81,295,149Zm7.74,20.9c-.42-14.71-10.3-24.45-23.41-24.41-14.45.05-22.49,9.63-22.67,22.57-.2,13.85,10.5,24.13,23.85,24.23C294.06,192.34,302.64,181.53,302.72,169.86ZM297,150.48l6.89,9.09c2.32-2,4.9-3.69,6.59-6,.94-1.28,1.18-4.31.31-5.36a6.54,6.54,0,0,0-5.52-1.8C302.5,147.08,300,148.93,297,150.48Z"/><path d="M222.18,142.53a34.09,34.09,0,0,1-4.72,1c-11.34.81-22.68,1.54-34,2.3-.88.06-1.76.15-2.64.2-4.85.24-6.36-1.37-5.88-6.25.1-1,.17-2,.32-3.85,2.82-.87,5.8-2.23,8.91-2.67,6.61-1,13.28-1.64,19.95-2a84.5,84.5,0,0,1,12.82.36c5,.45,5.25,1,5.26,5.86Zm-43.93-.41c7.46,0,14.53.17,21.58-.05A147.83,147.83,0,0,0,216,140.69c1.21-.17,2.17-2.08,3.24-3.2-1.27-1-2.53-2.74-3.82-2.77-7.93-.19-15.86-.12-23.79.14a49.44,49.44,0,0,0-10.42,1.44C178.54,137,176.87,138.82,178.25,142.12Z"/><path d="M304.25,139.55a27.64,27.64,0,0,1-4.59,1.08c-11.8.83-23.6,1.58-35.41,2.32a16.73,16.73,0,0,1-2.41-.19,27.12,27.12,0,0,1-1.54-3c-2.52-6.69-1.23-9,5.8-9.71,8.48-.88,17-1.67,25.49-2.21a29.64,29.64,0,0,1,9.34.88c1.35.35,2.78,2.31,3.19,3.81C304.66,134.55,304.25,136.8,304.25,139.55Zm-41.43.09c2.82-.16,5.59-.37,8.37-.46,8.82-.3,17.65-.53,26.47-.83,2.62-.08,4.32-1.24,4.36-4.13s-1.8-3.49-4.26-3.47c-5.66.05-11.33-.22-17,.06-4.47.21-8.89,1.29-13.36,1.54C262.11,132.66,261.65,133,262.82,139.64Z"/><path d="M168.13,251.56c-4-5.86-6.2-31.75-5.46-40.45C164.57,225.2,166.4,238.74,168.13,251.56Z"/><path d="M170.88,256.64l12.53,9.56C179.39,266.55,171.29,260.27,170.88,256.64Z"/><path d="M244.24,75.24l2.3,2.3c-.08,6.06-.36,6.53-3.95,6.86-.27-2.54-.55-5.09-.9-8.34Z"/><path d="M263.25,316.7H221.42l0-.34h41.69Z"/><path d="M204.94,296.82c.72-1.37,1.23-3,2.28-4,.4-.39,2.3.25,3.06.94a2.72,2.72,0,0,1,.11,2.66,18.67,18.67,0,0,1-4.11,1.93Zm1.69-.7,1.45.69.93-2.54-1.1-.48Z"/><path d="M273.66,291c.6,1.38,2,3.15,1.6,4-.54,1.1-2.58,1.45-4,2.12L270,296.09c.51-1.64,1-3.29,1.54-4.93Zm-1.61,1.8-.58,1.49c.79.19,1.58.43,2.38.54.15,0,.37-.52.76-1.12Z"/><path d="M249.31,322.78c1.11-.62,2.2-1.63,3.35-1.71.67,0,1.68,1.33,2.05,2.25.19.5-.7,2-1,2a25,25,0,0,1-4.19-.92Zm3.89,1-.06-1-2,.25.07.78Z"/><path d="M211.27,306.68a20.8,20.8,0,0,1-2.28,3.54c-.27.29-2-.14-2.22-.61-.36-.89-.51-2.57,0-3,.92-.73,2.4-.76,3.64-1.09Zm-2.08.19h-1.25v1.89l1,.1Z"/><path d="M234.77,325.31l-5,.37c.28-1.43.22-2.71.81-3.51a2.56,2.56,0,0,1,2.54-.4C233.84,322.38,234,323.64,234.77,325.31Zm-2-1.7-.32-.63-1.1.66.24.47Z"/><path d="M274.14,318.69c.25,1.32.49,2.64.73,4l-3.66,0c.33-1.32.65-2.65,1-4Zm-1.72,3,.55.35.78-1.32-.43-.27Z"/><path d="M275.3,305.87l-2.1,3.74c-.79-.72-2.38-1.79-2.24-2.11a12.25,12.25,0,0,1,2.41-2.94Zm-2.28.38-.79.41,1,1.45.69-.51Z"/><path d="M207.64,324.68c.05-1-.24-2.25.24-2.89a2.58,2.58,0,0,1,2.53-.4c.74.65.93,1.91,1.52,3.29Zm1.14-2-.05.56,1.46.13.05-.57Z"/><path d="M349.85,349.43c-.12,6.05,0,12.13-3.5,17.56-3,4.67-10.05,5.94-14,2.13a4.85,4.85,0,0,1-1.36-3.3c.37-8.08.64-16.18,1.54-24.2.65-5.77,3.23-7.86,7.71-7.69s9.2,4.39,9.61,9C350,345.11,349.85,347.28,349.85,349.43Z"/><path d="M330.75,307c1.94-.34,2.67-.5,3.4-.59a10,10,0,0,1,1.5.1l2.06,4c-2.28.47-4.09,1.32-5.58.94C331.4,311.25,331.25,308.77,330.75,307Zm4.47-.22-4,3.2,4,.33Z"/><path d="M325.39,390.66c4.34-.46,5.1.37,4.15,4.32C325.48,396.15,324.34,395.05,325.39,390.66Zm1.78.71-.79.36.54,2.36,2.73-.83Z"/><path d="M341,401.38l3.07,1.44c-.12.44-.24.87-.37,1.3l-4.2.81c-.18-2.18-1.45-4.18,1.72-4.46,0,0,.14.22.11.32a5.55,5.55,0,0,1-.27.62v2.42l1.14-.31Z"/><path d="M422.61,275.11c-3,2.09-6.9,2.21-8.46-.34-1-1.63-1.4-4.89-.43-6.13s4.32-2.27,6.11-1.71C424,268.21,422.94,272,422.61,275.11Zm-3.69-5.5-.55-.13-.3,1,.66.18C418.8,270.32,418.86,270,418.92,269.61Z"/><path d="M402,267.22c.42-2.85.76-5.12,1.26-8.46,2.77.45,6.05,0,7,1.35,1.72,2.29,2.14,5.66-1.15,8.7Zm4.82-2.06.82.1.42-2.58-1-.13Z"/><path d="M430.56,280.2c-.5,2.61-.88,5.1-4.37,5.12s-4.94-1.5-5-5.11c0-2.81,1.29-4.14,4.11-4.18S430,277.34,430.56,280.2Zm-4.13.41,0-.8-1.25.17,0,.5Z"/><path d="M79.66,413.81c1.76.16,3.32,1.75,3.41,4.5.1,3.28-2.89,3.46-4.82,3.55-2.27.09-4.44-1.27-4.24-4.19C74.21,414.91,76,413.81,79.66,413.81Z"/><path d="M94.78,430.89c.29-3.08,0-6.44,3.27-7.41,3.39,1.32,5.91,2.95,4.64,6.53-2.39,4.4-5.28,1.38-8,.79Zm5.11-2.46-.35-.61-1.18.77.3.51Z"/><path d="M89.39,420.83c1.45,2.49,2.35,4.91-.2,6.54a5.16,5.16,0,0,1-4.67,0c-1-.68-1.75-3-1.46-4.29C83.84,419.5,86.89,421,89.39,420.83ZM86.63,425v-.25l-.91,0,0,.4Z"/><path d="M94.71,430.8h-.26l.32.08Z"/><path d="M201.78,243.5c-3.42-6.5-3.5-13.32-3-21.09a46.26,46.26,0,0,1,6.23-.88c9.07-.08,18.14.13,27.2,0,7.17-.11,14.33-.61,21.5-.89,7.69-.29,15.38-.6,23.07-.71,1.76,0,3.53.72,5.76,1.21-.39,5.38-.6,10.27-1.17,15.11-.31,2.63-2,4.12-4.9,4.2-14.9.45-29.8.94-44.69,1.56-8.7.36-17.39,1-26.09,1.5C204.46,243.56,203.2,243.5,201.78,243.5Zm9.18-4.32h6.9l-1-7H210C210.32,234.56,210.62,236.73,211,239.18Zm8.35.08,7.1-.48c-.27-1.22-.45-2-.66-3l-5.65.56-.24-1.1a22.26,22.26,0,0,0,3.67-1,16.06,16.06,0,0,0,2.68-2l-.67-1.08-7.39.49C218.57,234.44,218.9,236.64,219.31,239.26Zm48.92-14.66,1.54,3.89-1.34,1.82h5.24l1-5.71Zm-63.4,14.59-.61-8.78-.55.16c.39-1.69.78-3.38,1.26-5.49C201.19,226.69,201,235.38,204.83,239.19Zm13.48-13.88.34,3.46h7.08v-3.46Zm17.32,9.75-8.07,1.05.18,2.58h7.89Zm17.86,3.07,5.65-.26v-4.44l-5.65.58ZM209,239.2V232l-3.52-.47,1.06,7.89Zm59.79-6.27v4.2h4.8v-5.28Zm-58.55-4.14h6.57l-.21-3.43h-6.36Zm50.59,4.81c.14,1.59.24,2.65.32,3.51h5.66v-4.45ZM236,228l-1.26-2.74h-7.24l.25,3.24Zm15.79,10c-.07-1.39-.11-2.43-.16-3.45h-7l1.41,3.45Zm-8.39-10.68a4.47,4.47,0,0,0-6.73-2c.08.78.18,1.7.32,3Zm1.05-.09h7.3c-.07-1-.13-1.79-.19-2.59h-7.11Zm-1.3,11.08v-3.15h-5.52v3.72Zm-6.74-7.85c-3.81.34-6.88-.47-8.74,2.61C230.41,232.71,234,235.35,236.4,230.49Zm31.15-5.81h-6.63c.14,1.07.24,1.86.34,2.59h6.29Zm-13.94-.13v2.76h5.69c-.08-1-.15-1.9-.21-2.76Zm24.71,6.89-2.85.85c-.09,1.65-.18,3.21-.28,5l3.13-.23Zm.08-1.95c-.1-1.9-.19-3.38-.28-4.91h-2.55v5.94Zm-25.16,2c4.46.9,5.49.48,5.85-2.49C257.05,229.66,254,227.4,253.24,231.47Zm-9.78,1.61-.41-3.17-6.16.92-.18,1.25Zm1.76-.19,6.73-1.72-.35-1.23h-6.52C245.13,230.86,245.17,231.67,245.22,232.89Zm-36.35-7.54c-3.75-.51-3.5,1.66-3.13,4.25l3.13-.9Zm52.24,3.87-.33.84c.73.4,1.46,1.15,2.18,1.13a30.23,30.23,0,0,0,4.56-.79l-.24-1.18Z"/><path d="M202,152.89c9.7-.32,19,9.18,18.73,18.7a19,19,0,0,1-18.86,18.6,18.65,18.65,0,0,1,.13-37.3Zm15.1,19.8c-1.51-6-2.6-11.06-7.89-13-1.87-.68-5.05-.45-6.4.76-2.06,1.83-1.77,4.76.19,7.19a50.3,50.3,0,0,1,4.9,6.69c1.27,2.26,2.87,4.1,5.29,2.82C215,176.19,216.07,173.9,217.08,172.69Zm-23.88,7.22c-.08,4.29,2.27,7.05,6.09,7.14,3.64.09,7.51-3.54,7.61-7.13.08-3.31-3.25-6.46-7-6.64S193.29,175.89,193.2,179.91Z"/><path d="M180.82,154.91c-1.68.84-3.32,2.08-5.08,2.31-.7.1-2.37-2-2.36-3.15s1.7-2.83,2.63-2.82c1.61,0,3.2,1.2,4.8,1.89Zm-6.56-.69.39,1.54,3.9-.76-1.17-3.7Z"/><path d="M261.68,168.35a18.77,18.77,0,0,1,18.43-18.54c9.8-.2,19.05,9.16,18.87,18.59-.21,10.26-8.52,18.75-18.72,18.75A18.77,18.77,0,0,1,261.68,168.35ZM284,156c-.69.53-2.66,1.34-3.35,2.77-.59,1.22,0,3.29.58,4.73,1.09,2.51,2.76,4.76,3.93,7.24,1.34,2.81,4,3.58,6.3,1.59,2.67-2.29,3.31-6,1.76-10.06A9,9,0,0,0,284,156Zm-1,19.69c-.07-4.29-3.24-7.67-7.18-7.64a7.16,7.16,0,0,0-6.74,7.19c.06,4.29,3.59,8,7.55,7.85C280.43,183,283.09,179.91,283,175.7Z"/><path d="M301,150.37c1.76-.44,3.54-1.23,5.27-1.14.76,0,2.06,2,1.95,2.89s-1.68,3-2.32,2.84c-1.79-.32-3.42-1.49-5.12-2.32Zm4.06-1.53c-1.14,1.59-1.88,2.31-2.16,3.19-.11.35.83,1.46,1.29,1.46a15.21,15.21,0,0,0,3.53-.84Z"/></svg>